<?xml version="1.0" encoding="utf-8"?>
<!-- Generator: Adobe Illustrator 16.0.0, SVG Export Plug-In . SVG Version: 6.00 Build 0)  -->
<!DOCTYPE svg PUBLIC "-//W3C//DTD SVG 1.1//EN" "http://www.w3.org/Graphics/SVG/1.1/DTD/svg11.dtd">
<svg version="1.1" id="Layer_1" xmlns="http://www.w3.org/2000/svg" xmlns:xlink="http://www.w3.org/1999/xlink" x="0px" y="0px"
	 width="100px" height="123px" viewBox="0 0 100 123" enable-background="new 0 0 100 123" xml:space="preserve">
<g>
	<polygon fill="#6D6E71" points="91.695,57.727 100,49.125 91.4,40.82 95.685,29.66 85.36,25.697 85.36,14.64 73.405,14.64 
		68.734,3.633 57.729,8.304 49.129,0 40.821,8.6 29.661,4.315 25.699,14.64 14.642,14.64 14.642,26.595 3.635,31.266 8.305,42.272 
		0,50.871 8.602,59.179 4.315,70.339 14.642,74.303 14.642,85.36 26.595,85.36 31.268,96.367 42.273,91.695 50.875,100 59.179,91.4 
		70.339,95.684 74.303,85.36 85.36,85.36 85.36,73.403 96.367,68.733 	"/>
	<polygon fill="#58595B" points="76.406,123.257 50,109.679 23.596,123.257 23.596,55.357 76.406,55.357 	"/>
	<polygon fill="#FFFFFF" points="69.989,123.257 50,112.978 30.012,123.257 30.012,71.857 69.989,71.857 	"/>
	<path fill="#DCAA00" d="M87.405,50c0,20.658-16.747,37.405-37.405,37.405S12.595,70.658,12.595,50S29.342,12.595,50,12.595
		S87.405,29.342,87.405,50"/>
	<path fill="#FFFFFF" d="M31.01,51.009c0.054-7.321,1.003-13.489,4.444-18.99c7.231-11.564,22.989-11.084,29.6,0.855
		c2.308,4.17,3.427,8.691,3.779,13.384c0.48,6.44-0.047,12.795-2.706,18.778c-2.403,5.406-6.1,9.49-12.142,10.857
		c-7.565,1.71-14.42-1.197-18.537-7.814C32.549,63.417,31.012,57.165,31.01,51.009 M46.602,56.724
		c-0.014,5.138,0.882,9.283,2.677,13.23c0.503,1.106,1.318,1.814,2.578,1.273c1.256-0.541,1.565-1.518,0.999-2.817
		c-2.558-5.88-2.416-11.858-0.603-17.896c2.076-6.915,1.353-13.629-1.458-20.204c-0.579-1.357-1.51-1.936-2.828-1.369
		c-1.335,0.576-1.256,1.75-0.76,2.92c2.426,5.717,2.397,11.532,0.665,17.404C47.074,51.965,46.563,54.698,46.602,56.724"/>
</g>
</svg>
