<?xml version="1.0" encoding="utf-8"?>
<!-- Generator: Adobe Illustrator 16.0.0, SVG Export Plug-In . SVG Version: 6.00 Build 0)  -->
<!DOCTYPE svg PUBLIC "-//W3C//DTD SVG 1.1//EN" "http://www.w3.org/Graphics/SVG/1.1/DTD/svg11.dtd">
<svg version="1.1" id="Layer_1" xmlns="http://www.w3.org/2000/svg" xmlns:xlink="http://www.w3.org/1999/xlink" x="0px" y="0px"
	 width="100px" height="123px" viewBox="0 0 100 123" enable-background="new 0 0 100 123" xml:space="preserve">
<g>
	<polygon fill="#6D6E71" points="91.695,57.727 100,49.125 91.4,40.82 95.685,29.66 85.36,25.697 85.36,14.64 73.405,14.64 
		68.734,3.633 57.727,8.304 49.127,0 40.821,8.6 29.661,4.315 25.695,14.64 14.638,14.64 14.638,26.595 3.631,31.266 8.305,42.272 
		0,50.871 8.6,59.179 4.315,70.339 14.638,74.303 14.638,85.36 26.593,85.36 31.266,96.367 42.273,91.695 50.873,100 59.177,91.4 
		70.339,95.684 74.301,85.36 85.36,85.36 85.36,73.403 96.365,68.733 	"/>
	<polygon fill="#58595B" points="76.404,123.257 49.998,109.679 23.594,123.257 23.594,55.357 76.404,55.357 	"/>
	<polygon fill="#FFFFFF" points="69.988,123.257 49.998,112.978 30.01,123.257 30.01,71.857 69.988,71.857 	"/>
	<path fill="#A7A9AC" d="M87.403,50c0,20.658-16.745,37.405-37.405,37.405c-20.656,0-37.405-16.747-37.405-37.405
		s16.749-37.405,37.405-37.405C70.658,12.595,87.403,29.342,87.403,50"/>
	<path fill="#FFFFFF" d="M61.714,30.731c-6.437-5.873-14.986-6.353-21.928-1.232c-12.634,9.315-13.373,29.439-1.46,39.742
		c7.134,6.17,15.4,6.431,22.705,0.482c6.182-5.037,8.931-11.792,9.131-19.012C70.211,42.652,67.177,35.718,61.714,30.731
		 M52.061,66.381c0,1.124-0.91,2.033-2.031,2.033c-1.124,0-2.034-0.91-2.034-2.033V33.525c0-1.12,0.91-2.031,2.034-2.031
		c1.122,0,2.031,0.912,2.031,2.031V66.381z"/>
</g>
</svg>
