<?xml version="1.0" encoding="utf-8"?>
<!-- Generator: Adobe Illustrator 16.0.0, SVG Export Plug-In . SVG Version: 6.00 Build 0)  -->
<!DOCTYPE svg PUBLIC "-//W3C//DTD SVG 1.1//EN" "http://www.w3.org/Graphics/SVG/1.1/DTD/svg11.dtd">
<svg version="1.1" id="Layer_1" xmlns="http://www.w3.org/2000/svg" xmlns:xlink="http://www.w3.org/1999/xlink" x="0px" y="0px"
	 width="512px" height="512px" viewBox="0 0 512 512" enable-background="new 0 0 512 512" xml:space="preserve">
<g>
	<g>
		<path fill="#231F20" d="M169.544,115.259c-6.302,4.474-12.523,11.025-18.667,19.665l-12.74-9.231
			c3.515-5.118,7.096-9.724,10.763-13.818c3.652-4.08,7.647-7.497,11.965-10.243c4.316-2.74,9.152-4.836,14.494-6.281
			c5.348-1.439,11.387-2.168,18.121-2.168c7.031,0,13.43,1.104,19.219,3.299c5.782,2.194,10.795,5.236,15.04,9.113
			c4.244,3.883,7.543,8.496,9.882,13.844c2.346,5.349,3.516,11.17,3.516,17.464c0,5.71-0.77,10.907-2.307,15.592
			c-1.537,4.691-3.916,9.336-7.135,13.949c-3.221,4.613-7.248,9.376-12.078,14.284c-4.836,4.908-10.617,10.29-17.352,16.144
			l-41.066,36.467h81.475v15.814H135.279v-13.424l55.783-49.285c5.854-5.275,10.835-10.039,14.935-14.296
			c4.101-4.251,7.432-8.247,9.994-11.991c2.563-3.739,4.396-7.405,5.493-11c1.098-3.594,1.643-7.299,1.643-11.11
			c0-4.546-0.842-8.62-2.523-12.214s-3.916-6.669-6.695-9.238c-2.786-2.569-6.078-4.547-9.889-5.94
			c-3.805-1.393-7.76-2.089-11.859-2.089C183.375,108.563,175.838,110.797,169.544,115.259z"/>
		<path fill="#231F20" d="M395.086,202.804c-3.076,9.665-7.438,18.121-13.063,25.369c-5.637,7.246-12.484,12.996-20.539,17.246
			c-8.057,4.245-16.992,6.367-26.795,6.367c-9.961,0-18.924-2.082-26.9-6.262c-7.988-4.172-14.797-9.881-20.42-17.129
			c-5.639-7.254-9.961-15.67-12.957-25.264c-3.01-9.593-4.508-19.803-4.508-30.644c0-10.835,1.537-21.091,4.613-30.757
			c3.074-9.666,7.424-18.121,13.061-25.368c5.639-7.254,12.486-12.997,20.541-17.248c8.055-4.244,17.057-6.373,27.018-6.373
			c9.803,0,18.699,2.089,26.676,6.262c7.977,4.179,14.783,9.889,20.422,17.136c5.637,7.247,9.961,15.67,12.955,25.263
			c3.01,9.593,4.508,19.811,4.508,30.645C399.697,182.889,398.16,193.139,395.086,202.804z M378.396,148.209
			c-2.195-7.688-5.348-14.455-9.449-20.316c-4.1-5.854-9.041-10.545-14.822-14.061c-5.781-3.515-12.26-5.27-19.436-5.27
			s-13.654,1.722-19.436,5.158c-5.781,3.443-10.684,8.055-14.717,13.844c-4.021,5.782-7.137,12.517-9.332,20.211
			c-2.193,7.688-3.297,15.782-3.297,24.271c0,8.496,1.104,16.624,3.297,24.383c2.195,7.766,5.35,14.572,9.449,20.428
			c4.088,5.86,9.068,10.512,14.928,13.949c5.861,3.442,12.367,5.164,19.555,5.164c7.162,0,13.641-1.722,19.436-5.164
			c5.781-3.438,10.684-8.049,14.705-13.838c4.033-5.782,7.109-12.523,9.225-20.211c2.129-7.688,3.193-15.775,3.193-24.271
			C381.695,163.992,380.59,155.903,378.396,148.209z"/>
	</g>
	<g>
		<path fill="#231F20" d="M220.543,381.839c-2.385,5.678-5.538,10.486-9.461,14.402c-3.923,3.93-8.411,6.939-13.464,9.043
			c-5.059,2.102-10.262,3.152-15.604,3.152c-4.087,0-7.838-0.512-11.249-1.537c-3.409-1.025-6.478-2.379-9.205-4.088
			c-2.727-1.707-5.197-3.691-7.418-5.967c-2.213-2.273-4.172-4.664-5.88-7.16v16.873h-13.128V282.086h13.128v54.048
			c1.819-2.615,3.837-5.111,6.052-7.504c2.221-2.39,4.691-4.452,7.418-6.214c2.727-1.773,5.769-3.193,9.119-4.271
			c3.352-1.076,7.076-1.615,11.163-1.615c5.23,0,10.376,1.025,15.435,3.063c5.053,2.049,9.573,5.033,13.549,8.961
			c3.98,3.915,7.161,8.726,9.546,14.401c2.386,5.691,3.581,12.17,3.581,19.436C224.125,369.671,222.929,376.147,220.543,381.839z
			 M208.185,348.487c-1.649-4.191-3.896-7.779-6.735-10.775c-2.838-2.996-6.136-5.297-9.888-6.873
			c-3.746-1.576-7.728-2.378-11.933-2.378c-4.087,0-8.042,0.827-11.847,2.47c-3.811,1.629-7.221,3.93-10.23,6.859
			c-3.009,2.943-5.4,6.506-7.154,10.697c-1.768,4.178-2.648,8.816-2.648,13.902c0,5.1,0.881,9.764,2.648,14.008
			c1.754,4.232,4.146,7.832,7.154,10.777c3.01,2.93,6.42,5.229,10.23,6.873c3.805,1.627,7.76,2.455,11.847,2.455
			c4.205,0,8.214-0.762,12.018-2.299c3.812-1.523,7.103-3.732,9.889-6.609c2.786-2.891,5-6.453,6.649-10.697
			c1.648-4.23,2.471-9.014,2.471-14.336C210.656,357.37,209.833,352.665,208.185,348.487z"/>
		<path fill="#231F20" d="M265.977,330.589c-4.262,1.195-8.441,2.76-12.528,4.691l-3.922-10.735
			c4.881-2.273,9.829-4.061,14.833-5.375c4.994-1.301,10.736-1.957,17.215-1.957c12.051,0,21.314,2.982,27.793,8.949
			c6.479,5.964,9.711,14.808,9.711,26.517v53.879h-12.615v-13.299c-3.063,3.98-7.188,7.504-12.352,10.578
			c-5.178,3.063-11.684,4.6-19.529,4.6c-4.086,0-8.094-0.564-12.014-1.709c-3.922-1.129-7.444-2.863-10.572-5.203
			c-3.128-2.326-5.624-5.191-7.497-8.607c-1.879-3.404-2.818-7.439-2.818-12.104c0-4.666,0.913-8.777,2.733-12.365
			c1.813-3.574,4.401-6.57,7.753-8.949c3.352-2.393,7.333-4.205,11.928-5.453c4.613-1.262,9.699-1.881,15.271-1.881
			c5.676,0,10.617,0.342,14.822,1.025s8.291,1.592,12.273,2.721v-3.063c0-7.963-2.299-13.955-6.898-17.988
			c-4.6-4.035-11.053-6.059-19.357-6.059C274.977,328.802,270.234,329.407,265.977,330.589z M261.781,366.831
			c-4.424,3.299-6.631,7.781-6.631,13.471c0,2.838,0.599,5.348,1.788,7.504c1.189,2.154,2.8,4.008,4.843,5.545
			c2.039,1.523,4.393,2.693,7.045,3.494c2.668,0.789,5.467,1.184,8.41,1.184c4.074,0,7.898-0.592,11.473-1.787
			s6.689-2.838,9.344-4.941c2.668-2.102,4.756-4.6,6.295-7.502c1.523-2.906,2.285-6.111,2.285-9.633v-8.529
			c-3.285-0.906-7.055-1.76-11.301-2.563c-4.244-0.789-9.094-1.195-14.52-1.195C272.545,361.878,266.199,363.534,261.781,366.831z"
			/>
		<path fill="#231F20" d="M360.156,406.558h-13.127v-88.149h13.127v23.009c1.59-3.627,3.588-6.99,5.967-10.053
			c2.391-3.075,5.125-5.716,8.186-7.937c3.076-2.207,6.426-3.889,10.066-5.02c3.627-1.143,7.557-1.656,11.762-1.537v14.151h-1.025
			c-4.77,0-9.291,0.854-13.561,2.549c-4.258,1.709-7.977,4.271-11.158,7.674c-3.191,3.418-5.689,7.648-7.502,12.709
			c-1.828,5.059-2.734,10.895-2.734,17.477V406.558z"/>
	</g>
	<path fill="none" stroke="#231F20" stroke-width="5" stroke-miterlimit="10" d="M505.994,256.005
		c0,138.068-111.922,249.99-249.989,249.99c-138.072,0-250-111.922-250-249.99c0-138.065,111.928-250,250-250
		C394.072,6.005,505.994,117.939,505.994,256.005z"/>
</g>
</svg>
