<?xml version="1.0" encoding="utf-8"?>
<!-- Generator: Adobe Illustrator 16.0.0, SVG Export Plug-In . SVG Version: 6.00 Build 0)  -->
<!DOCTYPE svg PUBLIC "-//W3C//DTD SVG 1.1//EN" "http://www.w3.org/Graphics/SVG/1.1/DTD/svg11.dtd">
<svg version="1.1" id="Layer_1" xmlns="http://www.w3.org/2000/svg" xmlns:xlink="http://www.w3.org/1999/xlink" x="0px" y="0px"
	 width="512px" height="512px" viewBox="0 0 512 512" enable-background="new 0 0 512 512" xml:space="preserve">
<g>
	<path fill="none" stroke="#231F20" stroke-width="5" stroke-miterlimit="10" d="M506,256.005c0,138.068-111.929,249.99-250,249.99
		c-138.072,0-250-111.922-250-249.99c0-138.066,111.928-250,250-250C394.071,6.005,506,117.938,506,256.005z"/>
	<path fill="none" stroke="#231F20" stroke-width="15" stroke-miterlimit="10" d="M237.038,401.183h-69.982
		c-18.055,0-32.688-14.627-32.688-32.682V147.349c0-18.049,14.633-32.682,32.688-32.682h69.982V401.183z"/>
	<path fill="none" stroke="#231F20" stroke-width="8" stroke-miterlimit="10" stroke-dasharray="30,20" d="M347.678,401.183H167.055
		c-18.049,0-32.688-14.627-32.688-32.668V147.349c0-18.049,14.639-32.682,32.688-32.682h180.623
		c18.05,0,32.682,14.633,32.682,32.682v221.166C380.359,386.556,365.728,401.183,347.678,401.183z"/>
</g>
</svg>
