<?xml version="1.0" encoding="utf-8"?>
<!-- Generator: Adobe Illustrator 16.0.0, SVG Export Plug-In . SVG Version: 6.00 Build 0)  -->
<!DOCTYPE svg PUBLIC "-//W3C//DTD SVG 1.1//EN" "http://www.w3.org/Graphics/SVG/1.1/DTD/svg11.dtd">
<svg version="1.1" id="Layer_1" xmlns="http://www.w3.org/2000/svg" xmlns:xlink="http://www.w3.org/1999/xlink" x="0px" y="0px"
	 width="124px" height="61px" viewBox="0 0 124 61" enable-background="new 0 0 124 61" xml:space="preserve">
<g display="none">
	<g display="inline">
		<path fill="#A6A8AC" d="M57.312,14.151h7.362v1.48h-5.597v4.542h5.171v1.46h-5.171v6.185h-1.765V14.151z"/>
		<path fill="#A6A8AC" d="M67.189,14.333c0.893-0.183,2.17-0.284,3.387-0.284c1.887,0,3.104,0.345,3.955,1.115
			c0.689,0.608,1.074,1.542,1.074,2.596c0,1.805-1.135,3.001-2.574,3.488v0.061c1.053,0.365,1.682,1.339,2.006,2.758
			c0.447,1.906,0.771,3.224,1.055,3.751h-1.824c-0.223-0.385-0.527-1.562-0.912-3.265c-0.406-1.886-1.137-2.596-2.738-2.656h-1.662
			v5.921h-1.766V14.333z M68.955,20.559h1.805c1.885,0,3.082-1.034,3.082-2.596c0-1.764-1.277-2.535-3.143-2.555
			c-0.854,0-1.461,0.081-1.744,0.162V20.559z"/>
		<path fill="#A6A8AC" d="M85.18,21.411h-5.313v4.928h5.92v1.48h-7.686V14.151h7.383v1.48h-5.617v4.319h5.313V21.411z"/>
		<path fill="#A6A8AC" d="M88.082,27.819V14.151h1.926l4.381,6.915c1.014,1.602,1.805,3.042,2.453,4.441l0.041-0.02
			c-0.162-1.825-0.203-3.488-0.203-5.617v-5.719h1.664v13.668h-1.785l-4.34-6.936c-0.953-1.521-1.865-3.082-2.555-4.563l-0.061,0.02
			c0.1,1.724,0.141,3.367,0.141,5.638v5.84H88.082z"/>
		<path fill="#A6A8AC" d="M110.98,27.373c-0.65,0.325-1.947,0.649-3.609,0.649c-3.854,0-6.754-2.433-6.754-6.915
			c0-4.279,2.9-7.179,7.139-7.179c1.703,0,2.777,0.365,3.244,0.608l-0.426,1.44c-0.67-0.325-1.623-0.568-2.758-0.568
			c-3.205,0-5.334,2.048-5.334,5.638c0,3.346,1.928,5.496,5.252,5.496c1.076,0,2.17-0.223,2.881-0.568L110.98,27.373z"/>
		<path fill="#A6A8AC" d="M114.957,14.151v5.719h6.611v-5.719h1.785v13.668h-1.785v-6.408h-6.611v6.408h-1.764V14.151H114.957z"/>
	</g>
	<g display="inline">
		<path fill="#A6A8AC" d="M57.312,35.387c0.852-0.141,1.967-0.264,3.387-0.264c1.744,0,3.022,0.406,3.833,1.137
			c0.75,0.648,1.197,1.643,1.197,2.859c0,1.236-0.365,2.209-1.055,2.92c-0.934,0.994-2.454,1.5-4.178,1.5
			c-0.527,0-1.014-0.02-1.419-0.121v5.475h-1.765V35.387z M59.077,41.979c0.385,0.102,0.872,0.141,1.46,0.141
			c2.129,0,3.426-1.033,3.426-2.92c0-1.805-1.277-2.676-3.224-2.676c-0.771,0-1.358,0.061-1.663,0.141V41.979z"/>
		<path fill="#A6A8AC" d="M68.104,35.408c0.893-0.184,2.17-0.285,3.387-0.285c1.885,0,3.102,0.346,3.953,1.115
			c0.689,0.609,1.076,1.541,1.076,2.596c0,1.805-1.137,3.002-2.576,3.488v0.061c1.055,0.365,1.684,1.34,2.008,2.758
			c0.445,1.906,0.771,3.225,1.055,3.752H75.18c-0.223-0.385-0.527-1.561-0.912-3.264c-0.404-1.887-1.135-2.596-2.736-2.658h-1.664
			v5.922h-1.764V35.408z M69.867,41.633h1.805c1.887,0,3.082-1.033,3.082-2.596c0-1.764-1.277-2.535-3.143-2.555
			c-0.852,0-1.459,0.08-1.744,0.162V41.633z"/>
		<path fill="#A6A8AC" d="M86.092,42.484h-5.313v4.928h5.922v1.48h-7.686V35.225h7.381v1.48h-5.617v4.32h5.313V42.484z"/>
		<path fill="#A6A8AC" d="M88.752,46.744c0.791,0.486,1.945,0.893,3.162,0.893c1.807,0,2.859-0.953,2.859-2.334
			c0-1.277-0.729-2.006-2.574-2.717c-2.23-0.791-3.609-1.947-3.609-3.873c0-2.129,1.764-3.711,4.42-3.711
			c1.4,0,2.414,0.324,3.021,0.67l-0.486,1.439c-0.445-0.244-1.359-0.648-2.596-0.648c-1.865,0-2.576,1.115-2.576,2.047
			c0,1.277,0.832,1.906,2.719,2.637c2.311,0.893,3.488,2.008,3.488,4.016c0,2.109-1.563,3.934-4.787,3.934
			c-1.318,0-2.758-0.385-3.488-0.871L88.752,46.744z"/>
		<path fill="#A6A8AC" d="M98.568,46.744c0.791,0.486,1.947,0.893,3.164,0.893c1.805,0,2.859-0.953,2.859-2.334
			c0-1.277-0.73-2.006-2.576-2.717c-2.23-0.791-3.609-1.947-3.609-3.873c0-2.129,1.764-3.711,4.422-3.711
			c1.398,0,2.412,0.324,3.021,0.67l-0.488,1.439c-0.445-0.244-1.357-0.648-2.596-0.648c-1.865,0-2.574,1.115-2.574,2.047
			c0,1.277,0.832,1.906,2.717,2.637c2.313,0.893,3.488,2.008,3.488,4.016c0,2.109-1.561,3.934-4.785,3.934
			c-1.318,0-2.758-0.385-3.488-0.871L98.568,46.744z"/>
	</g>
	<path display="inline" fill="#A6A8AC" d="M26.469,12.113h-6.025V2.639c0-0.732,0.591-1.326,1.326-1.326h3.375
		c0.73,0,1.324,0.594,1.324,1.326V12.113z"/>
	<path display="inline" fill="#A6A8AC" d="M41.525,10.666h-4.318c-0.089-3.165-2.354-5.705-5.148-5.705H14.851
		c-2.794,0-5.059,2.54-5.146,5.705H9.687v1.014h-9.04c0,4.813,4.039,8.713,9.04,8.771v28.478c-1.473,0.217-2.607,1.424-2.607,2.9
		v4.918c0,1.623,1.373,2.941,3.064,2.941h26.621c1.694,0,3.065-1.318,3.065-2.941v-4.918c0-0.996-0.518-1.873-1.306-2.406h3
		c2.237,0,4.053-1.738,4.053-3.887V14.556C45.578,12.407,43.762,10.666,41.525,10.666 M34.102,48.41H12.81V11.68h21.292V48.41z
		 M43.033,45.535c0,0.799-0.676,1.443-1.508,1.443h-4.303v-33.87h4.303c0.832,0,1.508,0.649,1.508,1.447V45.535z"/>
	<polygon display="inline" fill="#A6A8AC" points="34.102,26.783 24.2,26.783 24.2,10.632 22.712,10.632 22.712,26.783 
		12.81,26.783 12.81,33.309 22.712,33.309 22.712,50.229 24.2,50.229 24.2,33.309 34.102,33.309 	"/>
</g>
<g>
	<g>
		<path fill="#A6A8AC" d="M69.358,27.401c-0.649,0.325-1.947,0.649-3.609,0.649c-3.854,0-6.753-2.433-6.753-6.915
			c0-4.279,2.9-7.179,7.138-7.179c1.703,0,2.778,0.365,3.245,0.608l-0.427,1.44c-0.669-0.325-1.622-0.568-2.758-0.568
			c-3.204,0-5.333,2.048-5.333,5.638c0,3.346,1.926,5.496,5.252,5.496c1.075,0,2.17-0.223,2.88-0.568L69.358,27.401z"/>
		<path fill="#A6A8AC" d="M82.865,20.872c0,4.705-2.859,7.199-6.346,7.199c-3.61,0-6.145-2.798-6.145-6.936
			c0-4.34,2.696-7.179,6.347-7.179C80.453,13.957,82.865,16.816,82.865,20.872z M72.261,21.095c0,2.92,1.581,5.536,4.359,5.536
			c2.798,0,4.38-2.575,4.38-5.678c0-2.717-1.42-5.556-4.359-5.556C73.721,15.396,72.261,18.093,72.261,21.095z"/>
		<path fill="#A6A8AC" d="M85.16,14.18h7.361v1.48h-5.596v4.542h5.17v1.46h-5.17v6.185H85.16V14.18z"/>
		<path fill="#A6A8AC" d="M95.039,14.18h7.361v1.48h-5.598v4.542h5.172v1.46h-5.172v6.185h-1.764V14.18z"/>
		<path fill="#A6A8AC" d="M111.994,21.439h-5.313v4.928h5.92v1.48h-7.686V14.18h7.383v1.48h-5.617v4.319h5.313V21.439z"/>
		<path fill="#A6A8AC" d="M121.973,21.439h-5.313v4.928h5.922v1.48h-7.686V14.18h7.381v1.48h-5.617v4.319h5.313V21.439z"/>
	</g>
	<g>
		<path fill="#A6A8AC" d="M71.325,42.919c-0.102-1.906-0.223-4.197-0.203-5.9h-0.061c-0.467,1.602-1.034,3.305-1.724,5.191
			l-2.413,6.631h-1.339l-2.21-6.51c-0.649-1.927-1.196-3.69-1.582-5.313h-0.041c-0.041,1.703-0.142,3.994-0.264,6.043l-0.365,5.86
			h-1.683l0.953-13.668h2.251l2.332,6.611c0.568,1.683,1.034,3.184,1.379,4.603h0.062c0.345-1.379,0.831-2.879,1.439-4.603
			l2.434-6.611h2.251l0.852,13.668H71.67L71.325,42.919z"/>
		<path fill="#A6A8AC" d="M78.324,44.623l-1.419,4.299H75.08l4.643-13.668h2.131l4.664,13.668h-1.887l-1.459-4.299H78.324z
			 M82.807,43.244l-1.34-3.935c-0.303-0.893-0.506-1.703-0.709-2.494h-0.041c-0.203,0.812-0.426,1.643-0.689,2.474l-1.338,3.955
			H82.807z"/>
		<path fill="#A6A8AC" d="M88.527,35.254h1.766v6.591h0.061c0.365-0.527,0.73-1.014,1.074-1.46l4.178-5.131h2.189l-4.947,5.8
			l5.334,7.868h-2.09L91.59,42.21l-1.297,1.5v5.212h-1.766V35.254z"/>
		<path fill="#A6A8AC" d="M106.598,42.514h-5.313v4.928h5.922v1.48h-7.686V35.254h7.381v1.48h-5.617v4.319h5.313V42.514z"/>
		<path fill="#A6A8AC" d="M109.5,35.437c0.893-0.183,2.17-0.284,3.387-0.284c1.887,0,3.104,0.345,3.955,1.115
			c0.689,0.608,1.074,1.541,1.074,2.596c0,1.805-1.135,3.002-2.574,3.488v0.061c1.053,0.365,1.682,1.339,2.006,2.758
			c0.447,1.906,0.771,3.225,1.055,3.752h-1.824c-0.223-0.386-0.527-1.562-0.912-3.265c-0.406-1.886-1.137-2.596-2.738-2.657h-1.662
			v5.922H109.5V35.437z M111.266,41.662h1.805c1.885,0,3.082-1.034,3.082-2.596c0-1.765-1.277-2.535-3.143-2.556
			c-0.854,0-1.461,0.081-1.744,0.163V41.662z"/>
	</g>
	<path fill="#A6A8AC" d="M12.276,52.074V15.137H47.11v-2.849c0-3.018-2.43-5.462-5.429-5.462H12.276H6.849
		c-3,0-5.432,2.444-5.432,5.462v39.786v6.478v1.164h48.991c0-2.658-2.141-7.642-4.78-7.642H12.276z"/>
	<rect x="19" y="1.284" fill="#A6A8AC" width="16.354" height="8.311"/>
	<path fill="#A6A8AC" d="M38.747,29.72v16.077c0,2.383-1.938,4.318-4.32,4.318H23.394c-2.382,0-4.318-1.936-4.318-4.318V29.72
		H38.747z M41.919,26.545H15.9v19.252c0,4.14,3.354,7.491,7.494,7.491h11.032c4.14,0,7.493-3.352,7.493-7.491V26.545z"/>
	<rect x="40.383" y="30.849" fill="#A6A8AC" width="9.077" height="3.045"/>
	<polygon fill="#A6A8AC" points="49.46,38.797 48.184,38.797 46.592,32.969 49.46,32.969 	"/>
	<path fill="#A6A8AC" d="M32.968,38.511c0,2.238-1.817,4.059-4.059,4.059c-2.24,0-4.058-1.82-4.058-4.059
		c0-2.243,1.817-4.061,4.058-4.061C31.151,34.45,32.968,36.268,32.968,38.511"/>
</g>
<g display="none">
	<text transform="matrix(1 0 0 1 54.832 27.334)" display="inline"><tspan x="0" y="0" fill="#A6A8AC" font-family="'GothamPro-Medium'" font-size="20.2836">ESPRE</tspan><tspan x="49.329" y="0" fill="#A6A8AC" font-family="'GothamPro-Medium'" font-size="20.2836">S</tspan><tspan x="58.659" y="0" fill="#A6A8AC" font-family="'GothamPro-Medium'" font-size="20.2836">S</tspan><tspan x="68.192" y="0" fill="#A6A8AC" font-family="'GothamPro-Medium'" font-size="20.2836">O</tspan></text>
	<text transform="matrix(1 0 0 1 54.832 48.4082)" display="inline"><tspan x="0" y="0" fill="#A6A8AC" font-family="'GothamPro-Medium'" font-size="20.2836">M</tspan><tspan x="15.841" y="0" fill="#A6A8AC" font-family="'GothamPro-Medium'" font-size="20.2836" letter-spacing="-1">A</tspan><tspan x="26.896" y="0" fill="#A6A8AC" font-family="'GothamPro-Medium'" font-size="20.2836">CHIN</tspan><tspan x="68.213" y="0" fill="#A6A8AC" font-family="'GothamPro-Medium'" font-size="20.2836">E</tspan></text>
	<path display="inline" fill="#A6A8AC" d="M26.823,13.715c0,6.967-5.387,12.615-12.03,12.615c-6.643,0-12.03-5.647-12.03-12.615"/>
	<path display="inline" fill="#A6A8AC" d="M34.837,21.575l-14.562-0.742v-3.472l14.562-0.742c2.036-0.102,3.814,1.003,3.814,2.48
		C38.651,20.572,36.873,21.68,34.837,21.575"/>
	<path display="inline" fill="#A6A8AC" d="M12.469,29.215l2.17-8.09l-2.7-0.724l-2.17,8.09c-0.084,0.328,0.108,0.665,0.437,0.754
		l1.513,0.406C12.046,29.737,12.382,29.543,12.469,29.215"/>
	<path display="inline" fill="#A6A8AC" d="M17.118,29.215l-2.17-8.09l2.7-0.724l2.17,8.09c0.084,0.328-0.108,0.665-0.436,0.754
		l-1.513,0.406C17.541,29.737,17.205,29.543,17.118,29.215"/>
	<path display="inline" fill="#A6A8AC" d="M4.479,34.658c0,7.244,4.584,13.109,10.302,13.109c5.718,0,10.352-5.865,10.352-13.109
		H4.479z M14.78,44.416c-1.773,0-3.202-1.429-3.202-3.204c0-1.773,1.429-3.252,3.202-3.252c1.776,0,3.252,1.479,3.252,3.252
		C18.032,42.987,16.556,44.416,14.78,44.416"/>
	<path display="inline" fill="#A6A8AC" d="M42.588,59.199h-55.587V50.92c0-2.069,1.676-3.748,3.746-3.748H38.84
		c2.07,0,3.748,1.679,3.748,3.748V59.199z"/>
	<path display="inline" fill="#A6A8AC" d="M35.636,1.801H-6.049c-3.84,0-6.95,3.114-6.95,6.953v5.076h55.587V8.753
		C42.588,4.915,39.476,1.801,35.636,1.801 M3.594,8.135H-3.69V5.364c0-0.828,0.672-1.5,1.5-1.5h4.284c0.83,0,1.5,0.672,1.5,1.5
		V8.135z M12.125,8.135H4.841V5.364c0-0.828,0.67-1.5,1.497-1.5h4.29c0.827,0,1.497,0.672,1.497,1.5V8.135z"/>
	<path display="inline" fill="#A6A8AC" d="M34.057,48.627H-3.69V13.366h37.747V48.627z M37.039,10.389H-6.668v41.22h43.707V10.389z"
		/>
	<path display="inline" fill="#A6A8AC" d="M26.375,42.62h-8.303v-6.914h8.303c1.907,0,3.459,1.55,3.459,3.457
		S28.281,42.62,26.375,42.62 M19.248,41.445h7.126c1.261,0,2.285-1.026,2.285-2.282c0-1.261-1.024-2.282-2.285-2.282h-7.126V41.445z
		"/>
</g>
<g display="none">
	
		<text transform="matrix(1 0 0 1 48.9692 37.7051)" display="inline" fill="#A6A8AC" font-family="'GothamPro-Medium'" font-size="20.2836">SIPHON</text>
	<path display="inline" fill="#A6A8AC" d="M8.811,5.169v1.578c0,2.913-2.372,5.285-5.288,5.285h-0.32
		c-2.913,0-5.284-2.372-5.284-5.285V5.169H8.811z M12.695,1.284h-18.66v5.463c0,5.062,4.105,9.17,9.167,9.17h0.32
		c5.067,0,9.173-4.108,9.173-9.17V1.284z"/>
	<path display="inline" fill="#A6A8AC" d="M12.288,5.844v3.123h14.804c1.646,0,2.979,1.337,2.979,2.983v40.022h3.488V10.697
		c0-2.679-2.175-4.854-4.856-4.854H12.288z"/>
	<path display="inline" fill="#A6A8AC" d="M34.328,41.968h-5.025c-0.922,0-1.665-0.746-1.665-1.666V18.984
		c0-0.916,0.743-1.662,1.665-1.662h5.025c0.919,0,1.662,0.746,1.662,1.662v21.317C35.99,41.222,35.247,41.968,34.328,41.968"/>
	<path display="inline" fill="#A6A8AC" d="M35.988,49.806v7.788c0,1.16-0.962,2.122-2.123,2.122h-46.864v-3.995
		c0-1.111,0.909-2.022,2.07-2.022h36.651c1.064,0,1.923-0.862,1.923-1.921v-1.972c0-1.161,0.962-2.123,2.125-2.123h4.095
		C35.026,47.683,35.988,48.645,35.988,49.806"/>
	<polygon display="inline" fill="#A6A8AC" points="-8.959,53.682 -3.902,51.426 10.633,51.426 15.687,53.682 	"/>
	<polygon display="inline" fill="#A6A8AC" points="-0.047,51.66 1.351,49.403 5.377,49.403 6.774,51.66 	"/>
	<path display="inline" fill="#A6A8AC" d="M3.365,16.166c6.742,0,12.229,5.484,12.229,12.229c0,6.743-5.487,12.228-12.229,12.228
		S-8.864,35.139-8.864,28.396C-8.864,21.65-3.377,16.166,3.365,16.166 M3.365,12.032c-9.038,0-16.364,7.325-16.364,16.363
		c0,9.036,7.326,16.364,16.364,16.364c9.035,0,16.364-7.328,16.364-16.364C19.729,19.357,12.4,12.032,3.365,12.032"/>
	<path display="inline" fill="#A6A8AC" d="M13.016,28.396c0,5.327-4.321,9.65-9.65,9.65s-9.652-4.323-9.652-9.65"/>
</g>
<g display="none">
	
		<text transform="matrix(1 0 0 1 41.2041 28.8311)" display="inline" fill="#A6A8AC" font-family="'GothamPro-Medium'" font-size="20.2836">POUR</text>
	<text transform="matrix(1 0 0 1 41.2041 49.9053)" display="inline"><tspan x="0" y="0" fill="#A6A8AC" font-family="'GothamPro-Medium'" font-size="20.2836">O</tspan><tspan x="13.104" y="0" fill="#A6A8AC" font-family="'GothamPro-Medium'" font-size="20.2836">VER</tspan></text>
	<path display="inline" fill="#A6A8AC" d="M14.738,37.555l4.318,14.331c0.412,1.382,0.16,2.834-0.696,3.989
		c-0.854,1.158-2.169,1.82-3.606,1.82h-20.27c-1.432,0-2.748-0.662-3.604-1.82c-0.854-1.155-1.108-2.607-0.693-3.989l4.316-14.331
		H14.738z M16.96,34.555H-7.717l-4.957,16.464c-1.452,4.82,2.144,9.682,7.158,9.682h20.27c5.02,0,8.616-4.861,7.163-9.682
		L16.96,34.555z"/>
	<path display="inline" fill="#A6A8AC" d="M16.7,6.058c0.042,0,0.16,0,0.252,0.128c0.095,0.129,0.055,0.242,0.044,0.28L7.698,19.813
		l-6.154,0.04L-7.777,6.528c-0.011-0.037-0.048-0.15,0.042-0.28c0.094-0.129,0.212-0.129,0.254-0.129l24.178-0.062H16.7z
		 M16.695,3.055h-0.003L-7.489,3.118c-2.249,0.005-3.835,2.213-3.128,4.351l10.002,15.394l10.478-0.054l9.973-15.406
		C20.54,5.259,18.943,3.053,16.695,3.055"/>
	<rect x="-8.799" y="27.782" display="inline" fill="#A6A8AC" width="27.033" height="7.052"/>
	<polygon display="inline" fill="#A6A8AC" points="15.494,28.599 -6.254,28.599 -7.707,24.166 16.947,24.166 	"/>
	<polygon display="inline" fill="#A6A8AC" points="16.133,1.868 -6.89,1.868 -7.707,0.3 16.947,0.3 	"/>
	<path display="inline" fill="#A6A8AC" d="M20.881,25.076h-32.523c-0.344,0-0.62-0.28-0.62-0.624v-1.583
		c0-0.346,0.276-0.625,0.62-0.625h32.523c0.344,0,0.625,0.28,0.625,0.625v1.583C21.507,24.796,21.226,25.076,20.881,25.076"/>
	<path display="inline" fill="#A6A8AC" d="M12.045,18.916l-1.308-1.745c0.906-0.678,1.886-1.198,2.926-1.553
		c1.027-0.349,1.718-0.397,2.388-0.449c0.465-0.034,0.958-0.067,1.642-0.231c1.318-0.323,2.947-0.718,3.341-1.72
		c0.292-0.738,0.042-1.957-0.869-2.645c-0.883-0.662-2.117-0.645-3.01,0.043l-1.329-1.725c1.665-1.288,3.984-1.307,5.645-0.059
		c1.603,1.203,2.285,3.432,1.592,5.184c-0.812,2.051-3.142,2.622-4.843,3.034c-0.846,0.205-1.445,0.252-2.007,0.293
		c-0.607,0.043-1.085,0.078-1.849,0.336C13.545,17.959,12.768,18.376,12.045,18.916"/>
	<path display="inline" fill="#A6A8AC" d="M23.085,51.959c-1.891,0-3.33-0.804-3.551-0.935l1.108-1.876
		c0.086,0.048,2.148,1.24,4.263,0.221c2.372-1.143,2.506-3.924,2.511-4.04c0.055-1.693-0.835-3.341-2.267-4.184
		c-1.873-1.114-4.463-0.691-6.144,1.009l-1.549-1.531c2.417-2.443,6.036-2.989,8.804-1.351c2.102,1.245,3.409,3.646,3.333,6.125
		c-0.005,0.174-0.184,4.219-3.748,5.934C24.882,51.794,23.939,51.959,23.085,51.959"/>
</g>
</svg>
