<?xml version="1.0" encoding="utf-8"?>
<!-- Generator: Adobe Illustrator 16.0.0, SVG Export Plug-In . SVG Version: 6.00 Build 0)  -->
<!DOCTYPE svg PUBLIC "-//W3C//DTD SVG 1.1//EN" "http://www.w3.org/Graphics/SVG/1.1/DTD/svg11.dtd">
<svg version="1.1" id="Layer_1" xmlns="http://www.w3.org/2000/svg" xmlns:xlink="http://www.w3.org/1999/xlink" x="0px" y="0px"
	 width="106px" height="63px" viewBox="0 0 106 63" enable-background="new 0 0 106 63" xml:space="preserve">
<g display="none">
	<g display="inline">
		<path fill="#A6A8AC" d="M48.312,15.151h7.362v1.48h-5.597v4.542h5.171v1.46h-5.171v6.185h-1.765V15.151z"/>
		<path fill="#A6A8AC" d="M58.189,15.333c0.893-0.183,2.17-0.284,3.387-0.284c1.887,0,3.104,0.345,3.955,1.115
			c0.689,0.608,1.074,1.542,1.074,2.596c0,1.805-1.135,3.001-2.574,3.488v0.061c1.053,0.365,1.682,1.339,2.006,2.758
			c0.447,1.906,0.771,3.224,1.055,3.751h-1.824c-0.223-0.385-0.527-1.562-0.912-3.265c-0.406-1.886-1.137-2.596-2.738-2.656h-1.662
			v5.921h-1.766V15.333z M59.955,21.559h1.805c1.885,0,3.082-1.034,3.082-2.596c0-1.764-1.277-2.535-3.143-2.555
			c-0.854,0-1.461,0.081-1.744,0.162V21.559z"/>
		<path fill="#A6A8AC" d="M76.18,22.411h-5.313v4.928h5.92v1.48h-7.686V15.151h7.383v1.48h-5.617v4.319h5.313V22.411z"/>
		<path fill="#A6A8AC" d="M79.082,28.819V15.151h1.926l4.381,6.915c1.014,1.602,1.805,3.042,2.453,4.441l0.041-0.02
			c-0.162-1.825-0.203-3.488-0.203-5.617v-5.719h1.664v13.668h-1.785l-4.34-6.936c-0.953-1.521-1.865-3.082-2.555-4.563l-0.061,0.02
			c0.1,1.724,0.141,3.367,0.141,5.638v5.84H79.082z"/>
		<path fill="#A6A8AC" d="M101.98,28.373c-0.65,0.325-1.947,0.649-3.609,0.649c-3.854,0-6.754-2.433-6.754-6.915
			c0-4.279,2.9-7.179,7.139-7.179c1.703,0,2.777,0.365,3.244,0.608l-0.426,1.44c-0.67-0.325-1.623-0.568-2.758-0.568
			c-3.205,0-5.334,2.048-5.334,5.638c0,3.346,1.928,5.496,5.252,5.496c1.076,0,2.17-0.223,2.881-0.568L101.98,28.373z"/>
		<path fill="#A6A8AC" d="M105.957,15.151v5.719h6.611v-5.719h1.785v13.668h-1.785v-6.408h-6.611v6.408h-1.764V15.151H105.957z"/>
	</g>
	<g display="inline">
		<path fill="#A6A8AC" d="M48.312,36.387c0.852-0.141,1.967-0.264,3.387-0.264c1.744,0,3.022,0.406,3.833,1.137
			c0.75,0.648,1.197,1.643,1.197,2.859c0,1.236-0.365,2.209-1.055,2.92c-0.934,0.994-2.454,1.5-4.178,1.5
			c-0.527,0-1.014-0.02-1.419-0.121v5.475h-1.765V36.387z M50.077,42.979c0.385,0.102,0.872,0.141,1.46,0.141
			c2.129,0,3.426-1.033,3.426-2.92c0-1.805-1.277-2.676-3.224-2.676c-0.771,0-1.358,0.061-1.663,0.141V42.979z"/>
		<path fill="#A6A8AC" d="M59.104,36.408c0.893-0.184,2.17-0.285,3.387-0.285c1.885,0,3.102,0.346,3.953,1.115
			c0.689,0.609,1.076,1.541,1.076,2.596c0,1.805-1.137,3.002-2.576,3.488v0.061c1.055,0.365,1.684,1.34,2.008,2.758
			c0.445,1.906,0.771,3.225,1.055,3.752H66.18c-0.223-0.385-0.527-1.561-0.912-3.264c-0.404-1.887-1.135-2.596-2.736-2.658h-1.664
			v5.922h-1.764V36.408z M60.867,42.633h1.805c1.887,0,3.082-1.033,3.082-2.596c0-1.764-1.277-2.535-3.143-2.555
			c-0.852,0-1.459,0.08-1.744,0.162V42.633z"/>
		<path fill="#A6A8AC" d="M77.092,43.484h-5.313v4.928h5.922v1.48h-7.686V36.225h7.381v1.48h-5.617v4.32h5.313V43.484z"/>
		<path fill="#A6A8AC" d="M79.752,47.744c0.791,0.486,1.945,0.893,3.162,0.893c1.807,0,2.859-0.953,2.859-2.334
			c0-1.277-0.729-2.006-2.574-2.717c-2.23-0.791-3.609-1.947-3.609-3.873c0-2.129,1.764-3.711,4.42-3.711
			c1.4,0,2.414,0.324,3.021,0.67l-0.486,1.439c-0.445-0.244-1.359-0.648-2.596-0.648c-1.865,0-2.576,1.115-2.576,2.047
			c0,1.277,0.832,1.906,2.719,2.637c2.311,0.893,3.488,2.008,3.488,4.016c0,2.109-1.563,3.934-4.787,3.934
			c-1.318,0-2.758-0.385-3.488-0.871L79.752,47.744z"/>
		<path fill="#A6A8AC" d="M89.568,47.744c0.791,0.486,1.947,0.893,3.164,0.893c1.805,0,2.859-0.953,2.859-2.334
			c0-1.277-0.73-2.006-2.576-2.717c-2.23-0.791-3.609-1.947-3.609-3.873c0-2.129,1.764-3.711,4.422-3.711
			c1.398,0,2.412,0.324,3.021,0.67l-0.488,1.439c-0.445-0.244-1.357-0.648-2.596-0.648c-1.865,0-2.574,1.115-2.574,2.047
			c0,1.277,0.832,1.906,2.717,2.637c2.313,0.893,3.488,2.008,3.488,4.016c0,2.109-1.561,3.934-4.785,3.934
			c-1.318,0-2.758-0.385-3.488-0.871L89.568,47.744z"/>
	</g>
	<path display="inline" fill="#A6A8AC" d="M17.469,13.113h-6.025V3.639c0-0.732,0.591-1.326,1.326-1.326h3.375
		c0.73,0,1.324,0.594,1.324,1.326V13.113z"/>
	<path display="inline" fill="#A6A8AC" d="M32.525,11.666h-4.318c-0.089-3.165-2.354-5.705-5.148-5.705H5.851
		c-2.794,0-5.059,2.54-5.146,5.705H0.687v1.014h-9.04c0,4.813,4.039,8.713,9.04,8.771v28.478c-1.473,0.217-2.607,1.424-2.607,2.9
		v4.918c0,1.623,1.373,2.941,3.064,2.941h26.621c1.694,0,3.065-1.318,3.065-2.941v-4.918c0-0.996-0.518-1.873-1.306-2.406h3
		c2.237,0,4.053-1.738,4.053-3.887V15.556C36.578,13.407,34.762,11.666,32.525,11.666 M25.102,49.41H3.81V12.68h21.292V49.41z
		 M34.033,46.535c0,0.799-0.676,1.443-1.508,1.443h-4.303v-33.87h4.303c0.832,0,1.508,0.649,1.508,1.447V46.535z"/>
	<polygon display="inline" fill="#A6A8AC" points="25.102,27.783 15.2,27.783 15.2,11.632 13.712,11.632 13.712,27.783 3.81,27.783 
		3.81,34.309 13.712,34.309 13.712,51.229 15.2,51.229 15.2,34.309 25.102,34.309 	"/>
</g>
<g display="none">
	<g display="inline">
		<path fill="#A6A8AC" d="M60.358,28.401c-0.649,0.325-1.947,0.649-3.609,0.649c-3.854,0-6.753-2.433-6.753-6.915
			c0-4.279,2.9-7.179,7.138-7.179c1.703,0,2.778,0.365,3.245,0.608l-0.427,1.44c-0.669-0.325-1.622-0.568-2.758-0.568
			c-3.204,0-5.333,2.048-5.333,5.638c0,3.346,1.926,5.496,5.252,5.496c1.075,0,2.17-0.223,2.88-0.568L60.358,28.401z"/>
		<path fill="#A6A8AC" d="M73.865,21.872c0,4.705-2.859,7.199-6.346,7.199c-3.61,0-6.145-2.798-6.145-6.936
			c0-4.34,2.696-7.179,6.347-7.179C71.453,14.957,73.865,17.816,73.865,21.872z M63.261,22.095c0,2.92,1.581,5.536,4.359,5.536
			c2.798,0,4.38-2.575,4.38-5.678c0-2.717-1.42-5.556-4.359-5.556C64.721,16.396,63.261,19.093,63.261,22.095z"/>
		<path fill="#A6A8AC" d="M76.16,15.18h7.361v1.48h-5.596v4.542h5.17v1.46h-5.17v6.185H76.16V15.18z"/>
		<path fill="#A6A8AC" d="M86.039,15.18H93.4v1.48h-5.598v4.542h5.172v1.46h-5.172v6.185h-1.764V15.18z"/>
		<path fill="#A6A8AC" d="M102.994,22.439h-5.313v4.928h5.92v1.48h-7.686V15.18h7.383v1.48h-5.617v4.319h5.313V22.439z"/>
		<path fill="#A6A8AC" d="M112.973,22.439h-5.313v4.928h5.922v1.48h-7.686V15.18h7.381v1.48h-5.617v4.319h5.313V22.439z"/>
	</g>
	<g display="inline">
		<path fill="#A6A8AC" d="M62.325,43.919c-0.102-1.906-0.223-4.197-0.203-5.9h-0.061c-0.467,1.602-1.034,3.305-1.724,5.191
			l-2.413,6.631h-1.339l-2.21-6.51c-0.649-1.927-1.196-3.69-1.582-5.313h-0.041c-0.041,1.703-0.142,3.994-0.264,6.043l-0.365,5.86
			h-1.683l0.953-13.668h2.251l2.332,6.611c0.568,1.683,1.034,3.184,1.379,4.603h0.062c0.345-1.379,0.831-2.879,1.439-4.603
			l2.434-6.611h2.251l0.852,13.668H62.67L62.325,43.919z"/>
		<path fill="#A6A8AC" d="M69.324,45.623l-1.419,4.299H66.08l4.643-13.668h2.131l4.664,13.668h-1.887l-1.459-4.299H69.324z
			 M73.807,44.244l-1.34-3.935c-0.303-0.893-0.506-1.703-0.709-2.494h-0.041c-0.203,0.812-0.426,1.643-0.689,2.474l-1.338,3.955
			H73.807z"/>
		<path fill="#A6A8AC" d="M79.527,36.254h1.766v6.591h0.061c0.365-0.527,0.73-1.014,1.074-1.46l4.178-5.131h2.189l-4.947,5.8
			l5.334,7.868h-2.09L82.59,43.21l-1.297,1.5v5.212h-1.766V36.254z"/>
		<path fill="#A6A8AC" d="M97.598,43.514h-5.313v4.928h5.922v1.48h-7.686V36.254h7.381v1.48h-5.617v4.319h5.313V43.514z"/>
		<path fill="#A6A8AC" d="M100.5,36.437c0.893-0.183,2.17-0.284,3.387-0.284c1.887,0,3.104,0.345,3.955,1.115
			c0.689,0.608,1.074,1.541,1.074,2.596c0,1.805-1.135,3.002-2.574,3.488v0.061c1.053,0.365,1.682,1.339,2.006,2.758
			c0.447,1.906,0.771,3.225,1.055,3.752h-1.824c-0.223-0.386-0.527-1.562-0.912-3.265c-0.406-1.886-1.137-2.596-2.738-2.657h-1.662
			v5.922H100.5V36.437z M102.266,42.662h1.805c1.885,0,3.082-1.034,3.082-2.596c0-1.765-1.277-2.535-3.143-2.556
			c-0.854,0-1.461,0.081-1.744,0.163V42.662z"/>
	</g>
	<path display="inline" fill="#A6A8AC" d="M3.276,53.074V16.137H38.11v-2.849c0-3.018-2.43-5.462-5.429-5.462H3.276h-5.427
		c-3,0-5.432,2.444-5.432,5.462v39.786v6.478v1.164h48.991c0-2.658-2.141-7.642-4.78-7.642H3.276z"/>
	<rect x="10" y="2.284" display="inline" fill="#A6A8AC" width="16.354" height="8.311"/>
	<path display="inline" fill="#A6A8AC" d="M29.747,30.72v16.077c0,2.383-1.938,4.318-4.32,4.318H14.394
		c-2.382,0-4.318-1.936-4.318-4.318V30.72H29.747z M32.919,27.545H6.9v19.252c0,4.14,3.354,7.491,7.494,7.491h11.032
		c4.14,0,7.493-3.352,7.493-7.491V27.545z"/>
	<rect x="31.383" y="31.849" display="inline" fill="#A6A8AC" width="9.077" height="3.045"/>
	<polygon display="inline" fill="#A6A8AC" points="40.46,39.797 39.184,39.797 37.592,33.969 40.46,33.969 	"/>
	<path display="inline" fill="#A6A8AC" d="M23.968,39.511c0,2.238-1.817,4.059-4.059,4.059c-2.24,0-4.058-1.82-4.058-4.059
		c0-2.243,1.817-4.061,4.058-4.061C22.151,35.45,23.968,37.268,23.968,39.511"/>
</g>
<g display="none">
	<g display="inline">
		<path fill="#A6A8AC" d="M54.826,21.926h-5.312v4.928h5.921v1.48H47.75V14.666h7.381v1.48h-5.617v4.319h5.312V21.926z"/>
		<path fill="#A6A8AC" d="M57.02,26.185c0.791,0.486,1.947,0.892,3.162,0.892c1.807,0,2.859-0.953,2.859-2.332
			c0-1.278-0.729-2.008-2.574-2.717c-2.23-0.791-3.609-1.947-3.609-3.874c0-2.129,1.764-3.711,4.42-3.711
			c1.4,0,2.414,0.325,3.021,0.669l-0.486,1.439c-0.445-0.243-1.359-0.649-2.596-0.649c-1.865,0-2.576,1.116-2.576,2.048
			c0,1.277,0.832,1.906,2.719,2.636c2.311,0.892,3.488,2.008,3.488,4.015c0,2.109-1.563,3.934-4.787,3.934
			c-1.318,0-2.758-0.385-3.488-0.872L57.02,26.185z"/>
		<path fill="#A6A8AC" d="M66.795,14.828c0.852-0.142,1.967-0.264,3.387-0.264c1.744,0,3.021,0.406,3.834,1.136
			c0.75,0.649,1.195,1.643,1.195,2.859c0,1.237-0.365,2.21-1.055,2.92c-0.932,0.994-2.453,1.501-4.178,1.501
			c-0.527,0-1.014-0.021-1.418-0.122v5.475h-1.766V14.828z M68.561,21.419c0.385,0.102,0.871,0.142,1.459,0.142
			c2.129,0,3.428-1.035,3.428-2.92c0-1.805-1.277-2.677-3.225-2.677c-0.771,0-1.359,0.061-1.662,0.142V21.419z"/>
		<path fill="#A6A8AC" d="M77.119,14.849c0.893-0.183,2.17-0.284,3.387-0.284c1.887,0,3.104,0.345,3.955,1.115
			c0.689,0.608,1.074,1.542,1.074,2.596c0,1.805-1.135,3.001-2.574,3.488v0.061c1.055,0.365,1.682,1.339,2.006,2.758
			c0.447,1.906,0.771,3.224,1.055,3.751h-1.824c-0.223-0.385-0.527-1.562-0.912-3.265c-0.406-1.886-1.137-2.596-2.738-2.656h-1.662
			v5.921h-1.766V14.849z M78.885,21.074h1.805c1.885,0,3.082-1.034,3.082-2.596c0-1.764-1.277-2.535-3.143-2.555
			c-0.854,0-1.461,0.081-1.744,0.162V21.074z"/>
		<path fill="#A6A8AC" d="M94.643,21.926H89.33v4.928h5.922v1.48h-7.686V14.666h7.381v1.48H89.33v4.319h5.313V21.926z"/>
		<path fill="#A6A8AC" d="M96.836,26.185c0.791,0.486,1.947,0.892,3.162,0.892c1.807,0,2.859-0.953,2.859-2.332
			c0-1.278-0.729-2.008-2.574-2.717c-2.23-0.791-3.609-1.947-3.609-3.874c0-2.129,1.764-3.711,4.42-3.711
			c1.4,0,2.414,0.325,3.021,0.669l-0.486,1.439c-0.445-0.243-1.359-0.649-2.596-0.649c-1.865,0-2.576,1.116-2.576,2.048
			c0,1.277,0.832,1.906,2.719,2.636c2.311,0.892,3.488,2.008,3.488,4.015c0,2.109-1.563,3.934-4.787,3.934
			c-1.318,0-2.758-0.385-3.488-0.872L96.836,26.185z"/>
		<path fill="#A6A8AC" d="M106.166,26.185c0.791,0.486,1.947,0.892,3.162,0.892c1.807,0,2.859-0.953,2.859-2.332
			c0-1.278-0.729-2.008-2.574-2.717c-2.23-0.791-3.609-1.947-3.609-3.874c0-2.129,1.764-3.711,4.42-3.711
			c1.4,0,2.414,0.325,3.021,0.669l-0.486,1.439c-0.445-0.243-1.359-0.649-2.596-0.649c-1.865,0-2.576,1.116-2.576,2.048
			c0,1.277,0.832,1.906,2.719,2.636c2.311,0.892,3.488,2.008,3.488,4.015c0,2.109-1.563,3.934-4.787,3.934
			c-1.318,0-2.758-0.385-3.488-0.872L106.166,26.185z"/>
		<path fill="#A6A8AC" d="M127.623,21.358c0,4.705-2.859,7.199-6.348,7.199c-3.609,0-6.145-2.798-6.145-6.936
			c0-4.34,2.697-7.179,6.348-7.179C125.209,14.443,127.623,17.302,127.623,21.358z M117.018,21.581c0,2.92,1.58,5.536,4.359,5.536
			c2.799,0,4.381-2.575,4.381-5.678c0-2.717-1.42-5.556-4.361-5.556C118.477,15.883,117.018,18.58,117.018,21.581z"/>
	</g>
	<g display="inline">
		<path fill="#A6A8AC" d="M59.268,43.405c-0.102-1.906-0.223-4.197-0.203-5.9h-0.061c-0.465,1.602-1.033,3.305-1.723,5.191
			l-2.414,6.631h-1.338l-2.21-6.51c-0.649-1.927-1.196-3.69-1.582-5.313h-0.041c-0.041,1.703-0.142,3.994-0.264,6.043l-0.365,5.86
			h-1.683l0.953-13.668h2.251l2.332,6.611c0.568,1.683,1.034,3.184,1.379,4.603h0.062c0.344-1.379,0.83-2.879,1.439-4.603
			l2.434-6.611h2.25l0.852,13.668h-1.723L59.268,43.405z"/>
		<path fill="#A6A8AC" d="M65.801,45.109l-1.42,4.299h-1.824l4.643-13.668h2.131l4.664,13.668h-1.887l-1.459-4.299H65.801z
			 M70.283,43.73l-1.34-3.935c-0.303-0.893-0.506-1.703-0.709-2.494h-0.041c-0.203,0.812-0.426,1.643-0.689,2.474l-1.338,3.955
			H70.283z"/>
		<path fill="#A6A8AC" d="M84.197,48.962c-0.65,0.324-1.947,0.649-3.609,0.649c-3.854,0-6.754-2.434-6.754-6.915
			c0-4.279,2.9-7.179,7.139-7.179c1.703,0,2.777,0.364,3.244,0.608l-0.426,1.439c-0.67-0.324-1.623-0.568-2.758-0.568
			c-3.205,0-5.334,2.049-5.334,5.638c0,3.347,1.928,5.496,5.252,5.496c1.076,0,2.17-0.224,2.881-0.568L84.197,48.962z"/>
		<path fill="#A6A8AC" d="M87.707,35.74v5.719h6.611V35.74h1.785v13.668h-1.785V43h-6.611v6.408h-1.764V35.74H87.707z"/>
		<path fill="#A6A8AC" d="M100.465,35.74v13.668h-1.764V35.74H100.465z"/>
		<path fill="#A6A8AC" d="M103.082,49.408V35.74h1.928l4.379,6.915c1.016,1.603,1.805,3.042,2.455,4.441l0.039-0.021
			c-0.162-1.825-0.201-3.488-0.201-5.617V35.74h1.662v13.668h-1.785l-4.34-6.936c-0.953-1.521-1.865-3.082-2.555-4.563l-0.061,0.021
			c0.102,1.724,0.143,3.366,0.143,5.638v5.84H103.082z"/>
		<path fill="#A6A8AC" d="M123.039,43h-5.313v4.928h5.922v1.48h-7.686V35.74h7.381v1.48h-5.617v4.319h5.313V43z"/>
	</g>
	<path display="inline" fill="#A6A8AC" d="M18.2,14.715c0,6.967-5.387,12.615-12.03,12.615c-6.643,0-12.03-5.647-12.03-12.615"/>
	<path display="inline" fill="#A6A8AC" d="M26.214,22.575l-14.562-0.742v-3.472l14.562-0.742c2.036-0.102,3.814,1.003,3.814,2.48
		C30.028,21.572,28.25,22.68,26.214,22.575"/>
	<path display="inline" fill="#A6A8AC" d="M3.845,30.215l2.17-8.09l-2.7-0.724l-2.17,8.09c-0.084,0.328,0.108,0.665,0.437,0.754
		l1.513,0.406C3.422,30.737,3.759,30.543,3.845,30.215"/>
	<path display="inline" fill="#A6A8AC" d="M8.495,30.215l-2.17-8.09l2.7-0.724l2.17,8.09c0.084,0.328-0.108,0.665-0.436,0.754
		l-1.513,0.406C8.917,30.737,8.582,30.543,8.495,30.215"/>
	<path display="inline" fill="#A6A8AC" d="M-4.145,35.658c0,7.244,4.584,13.109,10.302,13.109c5.718,0,10.352-5.865,10.352-13.109
		H-4.145z M6.157,45.416c-1.773,0-3.202-1.429-3.202-3.204c0-1.773,1.429-3.252,3.202-3.252c1.776,0,3.252,1.479,3.252,3.252
		C9.409,43.987,7.933,45.416,6.157,45.416"/>
	<path display="inline" fill="#A6A8AC" d="M33.965,60.199h-55.587V51.92c0-2.069,1.676-3.748,3.746-3.748h48.093
		c2.07,0,3.748,1.679,3.748,3.748V60.199z"/>
	<path display="inline" fill="#A6A8AC" d="M27.012,2.801h-41.685c-3.84,0-6.95,3.114-6.95,6.953v5.076h55.587V9.753
		C33.965,5.915,30.853,2.801,27.012,2.801 M-5.03,9.135h-7.284V6.364c0-0.828,0.672-1.5,1.5-1.5h4.284c0.83,0,1.5,0.672,1.5,1.5
		V9.135z M3.501,9.135h-7.284V6.364c0-0.828,0.67-1.5,1.497-1.5h4.29c0.827,0,1.497,0.672,1.497,1.5V9.135z"/>
	<path display="inline" fill="#A6A8AC" d="M25.434,49.627h-37.747V14.366h37.747V49.627z M28.415,11.389h-43.707v41.22h43.707
		V11.389z"/>
	<path display="inline" fill="#A6A8AC" d="M17.751,43.62H9.448v-6.914h8.303c1.907,0,3.459,1.55,3.459,3.457
		S19.658,43.62,17.751,43.62 M10.625,42.445h7.126c1.261,0,2.285-1.026,2.285-2.282c0-1.261-1.024-2.282-2.285-2.282h-7.126V42.445z
		"/>
</g>
<g display="none">
	<g display="inline">
		<path fill="#A6A8AC" d="M52.962,36.556c0.791,0.486,1.947,0.893,3.163,0.893c1.806,0,2.859-0.953,2.859-2.333
			c0-1.277-0.729-2.007-2.575-2.717c-2.23-0.791-3.609-1.947-3.609-3.874c0-2.129,1.765-3.711,4.421-3.711
			c1.399,0,2.413,0.325,3.021,0.669l-0.487,1.439c-0.445-0.243-1.358-0.649-2.596-0.649c-1.865,0-2.575,1.116-2.575,2.048
			c0,1.277,0.832,1.906,2.718,2.636c2.312,0.892,3.488,2.007,3.488,4.015c0,2.109-1.562,3.935-4.786,3.935
			c-1.318,0-2.758-0.386-3.488-0.872L52.962,36.556z"/>
		<path fill="#A6A8AC" d="M64.97,25.037v13.668h-1.765V25.037H64.97z"/>
		<path fill="#A6A8AC" d="M68.053,25.199c0.852-0.142,1.967-0.264,3.387-0.264c1.744,0,3.021,0.406,3.834,1.136
			c0.75,0.649,1.195,1.643,1.195,2.859c0,1.237-0.365,2.21-1.055,2.92c-0.932,0.994-2.453,1.501-4.178,1.501
			c-0.527,0-1.014-0.021-1.418-0.122v5.476h-1.766V25.199z M69.818,31.79c0.385,0.102,0.871,0.142,1.459,0.142
			c2.129,0,3.428-1.035,3.428-2.92c0-1.805-1.277-2.677-3.225-2.677c-0.771,0-1.359,0.061-1.662,0.142V31.79z"/>
		<path fill="#A6A8AC" d="M80.609,25.037v5.719h6.609v-5.719h1.785v13.668h-1.785v-6.408h-6.609v6.408h-1.766V25.037H80.609z"/>
		<path fill="#A6A8AC" d="M103.75,31.729c0,4.705-2.859,7.199-6.348,7.199c-3.609,0-6.145-2.798-6.145-6.935
			c0-4.34,2.697-7.179,6.348-7.179C101.336,24.814,103.75,27.673,103.75,31.729z M93.145,31.952c0,2.92,1.58,5.536,4.359,5.536
			c2.799,0,4.381-2.575,4.381-5.678c0-2.717-1.42-5.556-4.361-5.556C94.604,26.254,93.145,28.951,93.145,31.952z"/>
		<path fill="#A6A8AC" d="M106.043,38.705V25.037h1.928l4.379,6.915c1.016,1.603,1.805,3.042,2.455,4.441l0.039-0.021
			c-0.162-1.825-0.201-3.488-0.201-5.617v-5.719h1.662v13.668h-1.785l-4.34-6.936c-0.953-1.521-1.865-3.082-2.555-4.563l-0.061,0.02
			c0.102,1.724,0.143,3.367,0.143,5.638v5.84H106.043z"/>
	</g>
	<path display="inline" fill="#A6A8AC" d="M11.505,6.169v1.578c0,2.913-2.372,5.285-5.288,5.285h-0.32
		c-2.913,0-5.284-2.372-5.284-5.285V6.169H11.505z M15.39,2.284H-3.27v5.463c0,5.062,4.105,9.17,9.167,9.17h0.32
		c5.067,0,9.173-4.108,9.173-9.17V2.284z"/>
	<path display="inline" fill="#A6A8AC" d="M14.983,6.844v3.123h14.804c1.646,0,2.979,1.337,2.979,2.983v40.022h3.488V11.697
		c0-2.679-2.175-4.854-4.856-4.854H14.983z"/>
	<path display="inline" fill="#A6A8AC" d="M37.023,42.968h-5.025c-0.922,0-1.665-0.746-1.665-1.666V19.984
		c0-0.916,0.743-1.662,1.665-1.662h5.025c0.919,0,1.662,0.746,1.662,1.662v21.317C38.685,42.222,37.942,42.968,37.023,42.968"/>
	<path display="inline" fill="#A6A8AC" d="M38.683,50.806v7.788c0,1.16-0.962,2.122-2.123,2.122h-46.864v-3.995
		c0-1.111,0.909-2.022,2.07-2.022h36.651c1.064,0,1.923-0.862,1.923-1.921v-1.972c0-1.161,0.962-2.123,2.125-2.123h4.095
		C37.721,48.683,38.683,49.645,38.683,50.806"/>
	<polygon display="inline" fill="#A6A8AC" points="-6.264,54.682 -1.208,52.426 13.328,52.426 18.381,54.682 	"/>
	<polygon display="inline" fill="#A6A8AC" points="2.648,52.66 4.045,50.403 8.072,50.403 9.469,52.66 	"/>
	<path display="inline" fill="#A6A8AC" d="M6.06,17.166c6.742,0,12.229,5.484,12.229,12.229c0,6.743-5.487,12.228-12.229,12.228
		S-6.169,36.139-6.169,29.396C-6.169,22.65-0.682,17.166,6.06,17.166 M6.06,13.032c-9.038,0-16.364,7.325-16.364,16.363
		c0,9.036,7.326,16.364,16.364,16.364c9.035,0,16.364-7.328,16.364-16.364C22.424,20.357,15.095,13.032,6.06,13.032"/>
	<path display="inline" fill="#A6A8AC" d="M15.71,29.396c0,5.327-4.321,9.65-9.65,9.65s-9.652-4.323-9.652-9.65"/>
</g>
<g>
	<g>
		<path fill="#A6A8AC" d="M57.477,16.325c0.852-0.142,1.967-0.264,3.387-0.264c1.744,0,3.021,0.406,3.832,1.136
			c0.75,0.649,1.197,1.643,1.197,2.859c0,1.237-0.365,2.21-1.055,2.92c-0.934,0.994-2.455,1.501-4.178,1.501
			c-0.527,0-1.014-0.021-1.42-0.122v5.475h-1.764V16.325z M59.24,22.916c0.385,0.102,0.873,0.142,1.461,0.142
			c2.129,0,3.426-1.035,3.426-2.92c0-1.805-1.277-2.677-3.223-2.677c-0.771,0-1.359,0.061-1.664,0.142V22.916z"/>
		<path fill="#A6A8AC" d="M79.947,22.855c0,4.705-2.859,7.199-6.346,7.199c-3.611,0-6.145-2.798-6.145-6.936
			c0-4.34,2.695-7.179,6.346-7.179C77.535,15.94,79.947,18.799,79.947,22.855z M69.342,23.078c0,2.92,1.582,5.536,4.359,5.536
			c2.799,0,4.381-2.575,4.381-5.678c0-2.717-1.42-5.556-4.359-5.556C70.803,17.38,69.342,20.077,69.342,23.078z"/>
		<path fill="#A6A8AC" d="M84.006,16.163v8.091c0,3.062,1.359,4.36,3.184,4.36c2.029,0,3.326-1.338,3.326-4.36v-8.091h1.785v7.97
			c0,4.198-2.211,5.921-5.172,5.921c-2.799,0-4.908-1.602-4.908-5.84v-8.051H84.006z"/>
		<path fill="#A6A8AC" d="M95.365,16.346c0.893-0.183,2.17-0.284,3.387-0.284c1.887,0,3.104,0.345,3.955,1.115
			c0.689,0.608,1.074,1.542,1.074,2.596c0,1.805-1.135,3.001-2.574,3.488v0.061c1.053,0.365,1.682,1.339,2.006,2.758
			c0.447,1.906,0.771,3.224,1.055,3.751h-1.824c-0.223-0.385-0.527-1.562-0.912-3.265c-0.406-1.886-1.137-2.596-2.738-2.656h-1.662
			v5.921h-1.766V16.346z M97.131,22.571h1.805c1.885,0,3.082-1.034,3.082-2.596c0-1.764-1.277-2.535-3.143-2.555
			c-0.854,0-1.461,0.081-1.744,0.162V22.571z"/>
	</g>
	<g>
		<path fill="#A6A8AC" d="M69.156,43.93c0,4.704-2.859,7.198-6.346,7.198c-3.611,0-6.145-2.798-6.145-6.935
			c0-4.34,2.695-7.179,6.346-7.179C66.744,37.015,69.156,39.873,69.156,43.93z M58.551,44.152c0,2.92,1.582,5.536,4.359,5.536
			c2.799,0,4.381-2.575,4.381-5.678c0-2.718-1.42-5.557-4.359-5.557C60.012,38.454,58.551,41.151,58.551,44.152z"/>
		<path fill="#A6A8AC" d="M73.58,50.905l-4.461-13.668h1.906l2.129,6.732c0.59,1.846,1.096,3.509,1.461,5.11h0.041
			c0.385-1.582,0.953-3.306,1.561-5.09l2.313-6.753h1.887l-4.889,13.668H73.58z"/>
		<path fill="#A6A8AC" d="M88.975,44.497h-5.313v4.928h5.92v1.48h-7.686V37.237h7.383v1.48h-5.617v4.319h5.313V44.497z"/>
		<path fill="#A6A8AC" d="M91.877,37.42c0.893-0.183,2.17-0.284,3.387-0.284c1.885,0,3.102,0.345,3.953,1.115
			c0.689,0.608,1.076,1.541,1.076,2.596c0,1.805-1.137,3.002-2.576,3.488v0.061c1.055,0.365,1.684,1.339,2.008,2.758
			c0.445,1.906,0.771,3.225,1.055,3.752h-1.826c-0.223-0.386-0.527-1.562-0.912-3.265c-0.404-1.886-1.135-2.596-2.736-2.657h-1.664
			v5.922h-1.764V37.42z M93.641,43.646h1.805c1.887,0,3.082-1.034,3.082-2.596c0-1.765-1.277-2.535-3.143-2.556
			c-0.852,0-1.459,0.082-1.744,0.163V43.646z"/>
	</g>
	<path fill="#A6A8AC" d="M29.469,38.555l4.318,14.331c0.412,1.382,0.16,2.834-0.696,3.989c-0.854,1.158-2.169,1.82-3.606,1.82H9.215
		c-1.432,0-2.748-0.662-3.604-1.82c-0.854-1.155-1.108-2.607-0.693-3.989l4.316-14.331H29.469z M31.691,35.555H7.014L2.057,52.019
		C0.605,56.839,4.201,61.7,9.215,61.7h20.27c5.02,0,8.616-4.861,7.163-9.682L31.691,35.555z"/>
	<path fill="#A6A8AC" d="M31.431,7.058c0.042,0,0.16,0,0.252,0.128c0.095,0.129,0.055,0.242,0.044,0.28l-9.298,13.347l-6.154,0.04
		L6.954,7.528c-0.011-0.037-0.048-0.15,0.042-0.28C7.09,7.119,7.208,7.119,7.25,7.119l24.178-0.062H31.431z M31.426,4.055h-0.003
		L7.242,4.118C4.994,4.124,3.407,6.331,4.114,8.469l10.002,15.394l10.478-0.054l9.973-15.406
		C35.271,6.259,33.674,4.053,31.426,4.055"/>
	<rect x="5.932" y="28.782" fill="#A6A8AC" width="27.033" height="7.052"/>
	<polygon fill="#A6A8AC" points="30.225,29.599 8.477,29.599 7.024,25.166 31.678,25.166 	"/>
	<polygon fill="#A6A8AC" points="30.864,2.868 7.841,2.868 7.024,1.3 31.678,1.3 	"/>
	<path fill="#A6A8AC" d="M35.612,26.076H3.089c-0.344,0-0.62-0.28-0.62-0.624v-1.583c0-0.346,0.276-0.625,0.62-0.625h32.523
		c0.344,0,0.625,0.28,0.625,0.625v1.583C36.238,25.796,35.957,26.076,35.612,26.076"/>
	<path fill="#A6A8AC" d="M26.776,19.916l-1.308-1.745c0.906-0.678,1.886-1.198,2.926-1.553c1.027-0.349,1.718-0.397,2.388-0.449
		c0.465-0.034,0.958-0.067,1.642-0.231c1.318-0.323,2.947-0.718,3.341-1.72c0.292-0.738,0.042-1.957-0.869-2.645
		c-0.883-0.662-2.117-0.645-3.01,0.043l-1.329-1.725c1.665-1.288,3.984-1.307,5.645-0.059c1.603,1.203,2.285,3.432,1.592,5.184
		c-0.812,2.051-3.142,2.622-4.843,3.034c-0.846,0.205-1.445,0.252-2.007,0.293c-0.607,0.043-1.085,0.078-1.849,0.336
		C28.276,18.959,27.499,19.376,26.776,19.916"/>
	<path fill="#A6A8AC" d="M37.816,52.959c-1.891,0-3.33-0.804-3.551-0.935l1.108-1.876c0.086,0.048,2.148,1.24,4.263,0.221
		c2.372-1.143,2.506-3.924,2.511-4.04c0.055-1.693-0.835-3.341-2.267-4.184c-1.873-1.114-4.463-0.691-6.144,1.009l-1.549-1.531
		c2.417-2.443,6.036-2.989,8.804-1.351c2.102,1.245,3.409,3.646,3.333,6.125c-0.005,0.174-0.184,4.219-3.748,5.934
		C39.613,52.794,38.67,52.959,37.816,52.959"/>
</g>
</svg>
