<?xml version="1.0" encoding="utf-8"?>
<!-- Generator: Adobe Illustrator 16.0.0, SVG Export Plug-In . SVG Version: 6.00 Build 0)  -->
<!DOCTYPE svg PUBLIC "-//W3C//DTD SVG 1.1//EN" "http://www.w3.org/Graphics/SVG/1.1/DTD/svg11.dtd">
<svg version="1.1" id="Layer_1" xmlns="http://www.w3.org/2000/svg" xmlns:xlink="http://www.w3.org/1999/xlink" x="0px" y="0px"
	 width="130px" height="61px" viewBox="0 0 130 61" enable-background="new 0 0 130 61" xml:space="preserve">
<g display="none">
	<g display="inline">
		<path fill="#A6A8AC" d="M60.312,14.151h7.362v1.48h-5.597v4.542h5.171v1.46h-5.171v6.185h-1.765V14.151z"/>
		<path fill="#A6A8AC" d="M70.189,14.333c0.893-0.183,2.17-0.284,3.387-0.284c1.887,0,3.104,0.345,3.955,1.115
			c0.689,0.608,1.074,1.542,1.074,2.596c0,1.805-1.135,3.001-2.574,3.488v0.061c1.053,0.365,1.682,1.339,2.006,2.758
			c0.447,1.906,0.771,3.224,1.055,3.751h-1.824c-0.223-0.385-0.527-1.562-0.912-3.265c-0.406-1.886-1.137-2.596-2.738-2.656h-1.662
			v5.921h-1.766V14.333z M71.955,20.559h1.805c1.885,0,3.082-1.034,3.082-2.596c0-1.764-1.277-2.535-3.143-2.555
			c-0.854,0-1.461,0.081-1.744,0.162V20.559z"/>
		<path fill="#A6A8AC" d="M88.18,21.411h-5.313v4.928h5.92v1.48h-7.686V14.151h7.383v1.48h-5.617v4.319h5.313V21.411z"/>
		<path fill="#A6A8AC" d="M91.082,27.819V14.151h1.926l4.381,6.915c1.014,1.602,1.805,3.042,2.453,4.441l0.041-0.02
			c-0.162-1.825-0.203-3.488-0.203-5.617v-5.719h1.664v13.668h-1.785l-4.34-6.936c-0.953-1.521-1.865-3.082-2.555-4.563l-0.061,0.02
			c0.1,1.724,0.141,3.367,0.141,5.638v5.84H91.082z"/>
		<path fill="#A6A8AC" d="M113.98,27.373c-0.65,0.325-1.947,0.649-3.609,0.649c-3.854,0-6.754-2.433-6.754-6.915
			c0-4.279,2.9-7.179,7.139-7.179c1.703,0,2.777,0.365,3.244,0.608l-0.426,1.44c-0.67-0.325-1.623-0.568-2.758-0.568
			c-3.205,0-5.334,2.048-5.334,5.638c0,3.346,1.928,5.496,5.252,5.496c1.076,0,2.17-0.223,2.881-0.568L113.98,27.373z"/>
		<path fill="#A6A8AC" d="M117.957,14.151v5.719h6.611v-5.719h1.785v13.668h-1.785v-6.408h-6.611v6.408h-1.764V14.151H117.957z"/>
	</g>
	<g display="inline">
		<path fill="#A6A8AC" d="M60.312,35.387c0.852-0.141,1.967-0.264,3.387-0.264c1.744,0,3.022,0.406,3.833,1.137
			c0.75,0.648,1.197,1.643,1.197,2.859c0,1.236-0.365,2.209-1.055,2.92c-0.934,0.994-2.454,1.5-4.178,1.5
			c-0.527,0-1.014-0.02-1.419-0.121v5.475h-1.765V35.387z M62.077,41.979c0.385,0.102,0.872,0.141,1.46,0.141
			c2.129,0,3.426-1.033,3.426-2.92c0-1.805-1.277-2.676-3.224-2.676c-0.771,0-1.358,0.061-1.663,0.141V41.979z"/>
		<path fill="#A6A8AC" d="M71.104,35.408c0.893-0.184,2.17-0.285,3.387-0.285c1.885,0,3.102,0.346,3.953,1.115
			c0.689,0.609,1.076,1.541,1.076,2.596c0,1.805-1.137,3.002-2.576,3.488v0.061c1.055,0.365,1.684,1.34,2.008,2.758
			c0.445,1.906,0.771,3.225,1.055,3.752H78.18c-0.223-0.385-0.527-1.561-0.912-3.264c-0.404-1.887-1.135-2.596-2.736-2.658h-1.664
			v5.922h-1.764V35.408z M72.867,41.633h1.805c1.887,0,3.082-1.033,3.082-2.596c0-1.764-1.277-2.535-3.143-2.555
			c-0.852,0-1.459,0.08-1.744,0.162V41.633z"/>
		<path fill="#A6A8AC" d="M89.092,42.484h-5.313v4.928h5.922v1.48h-7.686V35.225h7.381v1.48h-5.617v4.32h5.313V42.484z"/>
		<path fill="#A6A8AC" d="M91.752,46.744c0.791,0.486,1.945,0.893,3.162,0.893c1.807,0,2.859-0.953,2.859-2.334
			c0-1.277-0.729-2.006-2.574-2.717c-2.23-0.791-3.609-1.947-3.609-3.873c0-2.129,1.764-3.711,4.42-3.711
			c1.4,0,2.414,0.324,3.021,0.67l-0.486,1.439c-0.445-0.244-1.359-0.648-2.596-0.648c-1.865,0-2.576,1.115-2.576,2.047
			c0,1.277,0.832,1.906,2.719,2.637c2.311,0.893,3.488,2.008,3.488,4.016c0,2.109-1.563,3.934-4.787,3.934
			c-1.318,0-2.758-0.385-3.488-0.871L91.752,46.744z"/>
		<path fill="#A6A8AC" d="M101.568,46.744c0.791,0.486,1.947,0.893,3.164,0.893c1.805,0,2.859-0.953,2.859-2.334
			c0-1.277-0.73-2.006-2.576-2.717c-2.23-0.791-3.609-1.947-3.609-3.873c0-2.129,1.764-3.711,4.422-3.711
			c1.398,0,2.412,0.324,3.021,0.67l-0.488,1.439c-0.445-0.244-1.357-0.648-2.596-0.648c-1.865,0-2.574,1.115-2.574,2.047
			c0,1.277,0.832,1.906,2.717,2.637c2.313,0.893,3.488,2.008,3.488,4.016c0,2.109-1.561,3.934-4.785,3.934
			c-1.318,0-2.758-0.385-3.488-0.871L101.568,46.744z"/>
	</g>
	<path display="inline" fill="#A6A8AC" d="M29.469,12.113h-6.025V2.639c0-0.732,0.591-1.326,1.326-1.326h3.375
		c0.73,0,1.324,0.594,1.324,1.326V12.113z"/>
	<path display="inline" fill="#A6A8AC" d="M44.525,10.666h-4.318c-0.089-3.165-2.354-5.705-5.148-5.705H17.851
		c-2.794,0-5.059,2.54-5.146,5.705h-0.019v1.014h-9.04c0,4.813,4.039,8.713,9.04,8.771v28.478c-1.473,0.217-2.607,1.424-2.607,2.9
		v4.918c0,1.623,1.373,2.941,3.064,2.941h26.621c1.694,0,3.065-1.318,3.065-2.941v-4.918c0-0.996-0.518-1.873-1.306-2.406h3
		c2.237,0,4.053-1.738,4.053-3.887V14.556C48.578,12.407,46.762,10.666,44.525,10.666 M37.102,48.41H15.81V11.68h21.292V48.41z
		 M46.033,45.535c0,0.799-0.676,1.443-1.508,1.443h-4.303v-33.87h4.303c0.832,0,1.508,0.649,1.508,1.447V45.535z"/>
	<polygon display="inline" fill="#A6A8AC" points="37.102,26.783 27.2,26.783 27.2,10.632 25.712,10.632 25.712,26.783 
		15.81,26.783 15.81,33.309 25.712,33.309 25.712,50.229 27.2,50.229 27.2,33.309 37.102,33.309 	"/>
</g>
<g display="none">
	<g display="inline">
		<path fill="#A6A8AC" d="M72.358,27.401c-0.649,0.325-1.947,0.649-3.609,0.649c-3.854,0-6.753-2.433-6.753-6.915
			c0-4.279,2.9-7.179,7.138-7.179c1.703,0,2.778,0.365,3.245,0.608l-0.427,1.44c-0.669-0.325-1.622-0.568-2.758-0.568
			c-3.204,0-5.333,2.048-5.333,5.638c0,3.346,1.926,5.496,5.252,5.496c1.075,0,2.17-0.223,2.88-0.568L72.358,27.401z"/>
		<path fill="#A6A8AC" d="M85.865,20.872c0,4.705-2.859,7.199-6.346,7.199c-3.61,0-6.145-2.798-6.145-6.936
			c0-4.34,2.696-7.179,6.347-7.179C83.453,13.957,85.865,16.816,85.865,20.872z M75.261,21.095c0,2.92,1.581,5.536,4.359,5.536
			c2.798,0,4.38-2.575,4.38-5.678c0-2.717-1.42-5.556-4.359-5.556C76.721,15.396,75.261,18.093,75.261,21.095z"/>
		<path fill="#A6A8AC" d="M88.16,14.18h7.361v1.48h-5.596v4.542h5.17v1.46h-5.17v6.185H88.16V14.18z"/>
		<path fill="#A6A8AC" d="M98.039,14.18h7.361v1.48h-5.598v4.542h5.172v1.46h-5.172v6.185h-1.764V14.18z"/>
		<path fill="#A6A8AC" d="M114.994,21.439h-5.313v4.928h5.92v1.48h-7.686V14.18h7.383v1.48h-5.617v4.319h5.313V21.439z"/>
		<path fill="#A6A8AC" d="M124.973,21.439h-5.313v4.928h5.922v1.48h-7.686V14.18h7.381v1.48h-5.617v4.319h5.313V21.439z"/>
	</g>
	<g display="inline">
		<path fill="#A6A8AC" d="M74.325,42.919c-0.102-1.906-0.223-4.197-0.203-5.9h-0.061c-0.467,1.602-1.034,3.305-1.724,5.191
			l-2.413,6.631h-1.339l-2.21-6.51c-0.649-1.927-1.196-3.69-1.582-5.313h-0.041c-0.041,1.703-0.142,3.994-0.264,6.043l-0.365,5.86
			h-1.683l0.953-13.668h2.251l2.332,6.611c0.568,1.683,1.034,3.184,1.379,4.603h0.062c0.345-1.379,0.831-2.879,1.439-4.603
			l2.434-6.611h2.251l0.852,13.668H74.67L74.325,42.919z"/>
		<path fill="#A6A8AC" d="M81.324,44.623l-1.419,4.299H78.08l4.643-13.668h2.131l4.664,13.668h-1.887l-1.459-4.299H81.324z
			 M85.807,43.244l-1.34-3.935c-0.303-0.893-0.506-1.703-0.709-2.494h-0.041c-0.203,0.812-0.426,1.643-0.689,2.474l-1.338,3.955
			H85.807z"/>
		<path fill="#A6A8AC" d="M91.527,35.254h1.766v6.591h0.061c0.365-0.527,0.73-1.014,1.074-1.46l4.178-5.131h2.189l-4.947,5.8
			l5.334,7.868h-2.09L94.59,42.21l-1.297,1.5v5.212h-1.766V35.254z"/>
		<path fill="#A6A8AC" d="M109.598,42.514h-5.313v4.928h5.922v1.48h-7.686V35.254h7.381v1.48h-5.617v4.319h5.313V42.514z"/>
		<path fill="#A6A8AC" d="M112.5,35.437c0.893-0.183,2.17-0.284,3.387-0.284c1.887,0,3.104,0.345,3.955,1.115
			c0.689,0.608,1.074,1.541,1.074,2.596c0,1.805-1.135,3.002-2.574,3.488v0.061c1.053,0.365,1.682,1.339,2.006,2.758
			c0.447,1.906,0.771,3.225,1.055,3.752h-1.824c-0.223-0.386-0.527-1.562-0.912-3.265c-0.406-1.886-1.137-2.596-2.738-2.657h-1.662
			v5.922H112.5V35.437z M114.266,41.662h1.805c1.885,0,3.082-1.034,3.082-2.596c0-1.765-1.277-2.535-3.143-2.556
			c-0.854,0-1.461,0.081-1.744,0.163V41.662z"/>
	</g>
	<path display="inline" fill="#A6A8AC" d="M15.276,52.074V15.137H50.11v-2.849c0-3.018-2.43-5.462-5.429-5.462H15.276H9.849
		c-3,0-5.432,2.444-5.432,5.462v39.786v6.478v1.164h48.991c0-2.658-2.141-7.642-4.78-7.642H15.276z"/>
	<rect x="22" y="1.284" display="inline" fill="#A6A8AC" width="16.354" height="8.311"/>
	<path display="inline" fill="#A6A8AC" d="M41.747,29.72v16.077c0,2.383-1.938,4.318-4.32,4.318H26.394
		c-2.382,0-4.318-1.936-4.318-4.318V29.72H41.747z M44.919,26.545H18.9v19.252c0,4.14,3.354,7.491,7.494,7.491h11.032
		c4.14,0,7.493-3.352,7.493-7.491V26.545z"/>
	<rect x="43.383" y="30.849" display="inline" fill="#A6A8AC" width="9.077" height="3.045"/>
	<polygon display="inline" fill="#A6A8AC" points="52.46,38.797 51.184,38.797 49.592,32.969 52.46,32.969 	"/>
	<path display="inline" fill="#A6A8AC" d="M35.968,38.511c0,2.238-1.817,4.059-4.059,4.059c-2.24,0-4.058-1.82-4.058-4.059
		c0-2.243,1.817-4.061,4.058-4.061C34.151,34.45,35.968,36.268,35.968,38.511"/>
</g>
<g display="none">
	<g display="inline">
		<path fill="#A6A8AC" d="M66.826,20.926h-5.312v4.928h5.921v1.48H59.75V13.666h7.381v1.48h-5.617v4.319h5.312V20.926z"/>
		<path fill="#A6A8AC" d="M69.02,25.185c0.791,0.486,1.947,0.892,3.162,0.892c1.807,0,2.859-0.953,2.859-2.332
			c0-1.278-0.729-2.008-2.574-2.717c-2.23-0.791-3.609-1.947-3.609-3.874c0-2.129,1.764-3.711,4.42-3.711
			c1.4,0,2.414,0.325,3.021,0.669l-0.486,1.439c-0.445-0.243-1.359-0.649-2.596-0.649c-1.865,0-2.576,1.116-2.576,2.048
			c0,1.277,0.832,1.906,2.719,2.636c2.311,0.892,3.488,2.008,3.488,4.015c0,2.109-1.563,3.934-4.787,3.934
			c-1.318,0-2.758-0.385-3.488-0.872L69.02,25.185z"/>
		<path fill="#A6A8AC" d="M78.795,13.828c0.852-0.142,1.967-0.264,3.387-0.264c1.744,0,3.021,0.406,3.834,1.136
			c0.75,0.649,1.195,1.643,1.195,2.859c0,1.237-0.365,2.21-1.055,2.92c-0.932,0.994-2.453,1.501-4.178,1.501
			c-0.527,0-1.014-0.021-1.418-0.122v5.475h-1.766V13.828z M80.561,20.419c0.385,0.102,0.871,0.142,1.459,0.142
			c2.129,0,3.428-1.035,3.428-2.92c0-1.805-1.277-2.677-3.225-2.677c-0.771,0-1.359,0.061-1.662,0.142V20.419z"/>
		<path fill="#A6A8AC" d="M89.119,13.849c0.893-0.183,2.17-0.284,3.387-0.284c1.887,0,3.104,0.345,3.955,1.115
			c0.689,0.608,1.074,1.542,1.074,2.596c0,1.805-1.135,3.001-2.574,3.488v0.061c1.055,0.365,1.682,1.339,2.006,2.758
			c0.447,1.906,0.771,3.224,1.055,3.751h-1.824c-0.223-0.385-0.527-1.562-0.912-3.265c-0.406-1.886-1.137-2.596-2.738-2.656h-1.662
			v5.921h-1.766V13.849z M90.885,20.074h1.805c1.885,0,3.082-1.034,3.082-2.596c0-1.764-1.277-2.535-3.143-2.555
			c-0.854,0-1.461,0.081-1.744,0.162V20.074z"/>
		<path fill="#A6A8AC" d="M106.643,20.926h-5.313v4.928h5.922v1.48h-7.686V13.666h7.381v1.48h-5.617v4.319h5.313V20.926z"/>
		<path fill="#A6A8AC" d="M108.836,25.185c0.791,0.486,1.947,0.892,3.162,0.892c1.807,0,2.859-0.953,2.859-2.332
			c0-1.278-0.729-2.008-2.574-2.717c-2.23-0.791-3.609-1.947-3.609-3.874c0-2.129,1.764-3.711,4.42-3.711
			c1.4,0,2.414,0.325,3.021,0.669l-0.486,1.439c-0.445-0.243-1.359-0.649-2.596-0.649c-1.865,0-2.576,1.116-2.576,2.048
			c0,1.277,0.832,1.906,2.719,2.636c2.311,0.892,3.488,2.008,3.488,4.015c0,2.109-1.563,3.934-4.787,3.934
			c-1.318,0-2.758-0.385-3.488-0.872L108.836,25.185z"/>
		<path fill="#A6A8AC" d="M118.166,25.185c0.791,0.486,1.947,0.892,3.162,0.892c1.807,0,2.859-0.953,2.859-2.332
			c0-1.278-0.729-2.008-2.574-2.717c-2.23-0.791-3.609-1.947-3.609-3.874c0-2.129,1.764-3.711,4.42-3.711
			c1.4,0,2.414,0.325,3.021,0.669l-0.486,1.439c-0.445-0.243-1.359-0.649-2.596-0.649c-1.865,0-2.576,1.116-2.576,2.048
			c0,1.277,0.832,1.906,2.719,2.636c2.311,0.892,3.488,2.008,3.488,4.015c0,2.109-1.563,3.934-4.787,3.934
			c-1.318,0-2.758-0.385-3.488-0.872L118.166,25.185z"/>
		<path fill="#A6A8AC" d="M139.623,20.358c0,4.705-2.859,7.199-6.348,7.199c-3.609,0-6.145-2.798-6.145-6.936
			c0-4.34,2.697-7.179,6.348-7.179C137.209,13.443,139.623,16.302,139.623,20.358z M129.018,20.581c0,2.92,1.58,5.536,4.359,5.536
			c2.799,0,4.381-2.575,4.381-5.678c0-2.717-1.42-5.556-4.361-5.556C130.477,14.883,129.018,17.58,129.018,20.581z"/>
	</g>
	<g display="inline">
		<path fill="#A6A8AC" d="M71.268,42.405c-0.102-1.906-0.223-4.197-0.203-5.9h-0.061c-0.465,1.602-1.033,3.305-1.723,5.191
			l-2.414,6.631h-1.338l-2.21-6.51c-0.649-1.927-1.196-3.69-1.582-5.313h-0.041c-0.041,1.703-0.142,3.994-0.264,6.043l-0.365,5.86
			h-1.683l0.953-13.668h2.251l2.332,6.611c0.568,1.683,1.034,3.184,1.379,4.603h0.062c0.344-1.379,0.83-2.879,1.439-4.603
			l2.434-6.611h2.25l0.852,13.668h-1.723L71.268,42.405z"/>
		<path fill="#A6A8AC" d="M77.801,44.109l-1.42,4.299h-1.824l4.643-13.668h2.131l4.664,13.668h-1.887l-1.459-4.299H77.801z
			 M82.283,42.73l-1.34-3.935c-0.303-0.893-0.506-1.703-0.709-2.494h-0.041c-0.203,0.812-0.426,1.643-0.689,2.474l-1.338,3.955
			H82.283z"/>
		<path fill="#A6A8AC" d="M96.197,47.962c-0.65,0.324-1.947,0.649-3.609,0.649c-3.854,0-6.754-2.434-6.754-6.915
			c0-4.279,2.9-7.179,7.139-7.179c1.703,0,2.777,0.364,3.244,0.608l-0.426,1.439c-0.67-0.324-1.623-0.568-2.758-0.568
			c-3.205,0-5.334,2.049-5.334,5.638c0,3.347,1.928,5.496,5.252,5.496c1.076,0,2.17-0.224,2.881-0.568L96.197,47.962z"/>
		<path fill="#A6A8AC" d="M99.707,34.74v5.719h6.611V34.74h1.785v13.668h-1.785V42h-6.611v6.408h-1.764V34.74H99.707z"/>
		<path fill="#A6A8AC" d="M112.465,34.74v13.668h-1.764V34.74H112.465z"/>
		<path fill="#A6A8AC" d="M115.082,48.408V34.74h1.928l4.379,6.915c1.016,1.603,1.805,3.042,2.455,4.441l0.039-0.021
			c-0.162-1.825-0.201-3.488-0.201-5.617V34.74h1.662v13.668h-1.785l-4.34-6.936c-0.953-1.521-1.865-3.082-2.555-4.563l-0.061,0.021
			c0.102,1.724,0.143,3.366,0.143,5.638v5.84H115.082z"/>
		<path fill="#A6A8AC" d="M135.039,42h-5.313v4.928h5.922v1.48h-7.686V34.74h7.381v1.48h-5.617v4.319h5.313V42z"/>
	</g>
	<path display="inline" fill="#A6A8AC" d="M30.2,13.715c0,6.967-5.387,12.615-12.03,12.615c-6.643,0-12.03-5.647-12.03-12.615"/>
	<path display="inline" fill="#A6A8AC" d="M38.214,21.575l-14.562-0.742v-3.472l14.562-0.742c2.036-0.102,3.814,1.003,3.814,2.48
		C42.028,20.572,40.25,21.68,38.214,21.575"/>
	<path display="inline" fill="#A6A8AC" d="M15.845,29.215l2.17-8.09l-2.7-0.724l-2.17,8.09c-0.084,0.328,0.108,0.665,0.437,0.754
		l1.513,0.406C15.422,29.737,15.759,29.543,15.845,29.215"/>
	<path display="inline" fill="#A6A8AC" d="M20.495,29.215l-2.17-8.09l2.7-0.724l2.17,8.09c0.084,0.328-0.108,0.665-0.436,0.754
		l-1.513,0.406C20.917,29.737,20.582,29.543,20.495,29.215"/>
	<path display="inline" fill="#A6A8AC" d="M7.855,34.658c0,7.244,4.584,13.109,10.302,13.109c5.718,0,10.352-5.865,10.352-13.109
		H7.855z M18.157,44.416c-1.773,0-3.202-1.429-3.202-3.204c0-1.773,1.429-3.252,3.202-3.252c1.776,0,3.252,1.479,3.252,3.252
		C21.409,42.987,19.933,44.416,18.157,44.416"/>
	<path display="inline" fill="#A6A8AC" d="M45.965,59.199H-9.623V50.92c0-2.069,1.676-3.748,3.746-3.748h48.093
		c2.07,0,3.748,1.679,3.748,3.748V59.199z"/>
	<path display="inline" fill="#A6A8AC" d="M39.012,1.801H-2.672c-3.84,0-6.95,3.114-6.95,6.953v5.076h55.587V8.753
		C45.965,4.915,42.853,1.801,39.012,1.801 M6.97,8.135h-7.284V5.364c0-0.828,0.672-1.5,1.5-1.5H5.47c0.83,0,1.5,0.672,1.5,1.5V8.135
		z M15.501,8.135H8.218V5.364c0-0.828,0.67-1.5,1.497-1.5h4.29c0.827,0,1.497,0.672,1.497,1.5V8.135z"/>
	<path display="inline" fill="#A6A8AC" d="M37.434,48.627H-0.313V13.366h37.747V48.627z M40.415,10.389H-3.292v41.22h43.707V10.389z
		"/>
	<path display="inline" fill="#A6A8AC" d="M29.751,42.62h-8.303v-6.914h8.303c1.907,0,3.459,1.55,3.459,3.457
		S31.658,42.62,29.751,42.62 M22.625,41.445h7.126c1.261,0,2.285-1.026,2.285-2.282c0-1.261-1.024-2.282-2.285-2.282h-7.126V41.445z
		"/>
</g>
<g>
	<g>
		<path fill="#A6A8AC" d="M64.962,35.556c0.791,0.486,1.947,0.893,3.163,0.893c1.806,0,2.859-0.953,2.859-2.333
			c0-1.277-0.729-2.007-2.575-2.717c-2.23-0.791-3.609-1.947-3.609-3.874c0-2.129,1.765-3.711,4.421-3.711
			c1.399,0,2.413,0.325,3.021,0.669l-0.487,1.439c-0.445-0.243-1.358-0.649-2.596-0.649c-1.865,0-2.575,1.116-2.575,2.048
			c0,1.277,0.832,1.906,2.718,2.636c2.312,0.892,3.488,2.007,3.488,4.015c0,2.109-1.562,3.935-4.786,3.935
			c-1.318,0-2.758-0.386-3.488-0.872L64.962,35.556z"/>
		<path fill="#A6A8AC" d="M76.97,24.037v13.668h-1.765V24.037H76.97z"/>
		<path fill="#A6A8AC" d="M80.053,24.199c0.852-0.142,1.967-0.264,3.387-0.264c1.744,0,3.021,0.406,3.834,1.136
			c0.75,0.649,1.195,1.643,1.195,2.859c0,1.237-0.365,2.21-1.055,2.92c-0.932,0.994-2.453,1.501-4.178,1.501
			c-0.527,0-1.014-0.021-1.418-0.122v5.476h-1.766V24.199z M81.818,30.79c0.385,0.102,0.871,0.142,1.459,0.142
			c2.129,0,3.428-1.035,3.428-2.92c0-1.805-1.277-2.677-3.225-2.677c-0.771,0-1.359,0.061-1.662,0.142V30.79z"/>
		<path fill="#A6A8AC" d="M92.609,24.037v5.719h6.609v-5.719h1.785v13.668h-1.785v-6.408h-6.609v6.408h-1.766V24.037H92.609z"/>
		<path fill="#A6A8AC" d="M115.75,30.729c0,4.705-2.859,7.199-6.348,7.199c-3.609,0-6.145-2.798-6.145-6.935
			c0-4.34,2.697-7.179,6.348-7.179C113.336,23.814,115.75,26.673,115.75,30.729z M105.145,30.952c0,2.92,1.58,5.536,4.359,5.536
			c2.799,0,4.381-2.575,4.381-5.678c0-2.717-1.42-5.556-4.361-5.556C106.604,25.254,105.145,27.951,105.145,30.952z"/>
		<path fill="#A6A8AC" d="M118.043,37.705V24.037h1.928l4.379,6.915c1.016,1.603,1.805,3.042,2.455,4.441l0.039-0.021
			c-0.162-1.825-0.201-3.488-0.201-5.617v-5.719h1.662v13.668h-1.785l-4.34-6.936c-0.953-1.521-1.865-3.082-2.555-4.563l-0.061,0.02
			c0.102,1.724,0.143,3.367,0.143,5.638v5.84H118.043z"/>
	</g>
	<path fill="#A6A8AC" d="M23.505,5.169v1.578c0,2.913-2.372,5.285-5.288,5.285h-0.32c-2.913,0-5.284-2.372-5.284-5.285V5.169H23.505
		z M27.39,1.284H8.73v5.463c0,5.062,4.105,9.17,9.167,9.17h0.32c5.067,0,9.173-4.108,9.173-9.17V1.284z"/>
	<path fill="#A6A8AC" d="M26.983,5.844v3.123h14.804c1.646,0,2.979,1.337,2.979,2.983v40.022h3.488V10.697
		c0-2.679-2.175-4.854-4.856-4.854H26.983z"/>
	<path fill="#A6A8AC" d="M49.023,41.968h-5.025c-0.922,0-1.665-0.746-1.665-1.666V18.984c0-0.916,0.743-1.662,1.665-1.662h5.025
		c0.919,0,1.662,0.746,1.662,1.662v21.317C50.685,41.222,49.942,41.968,49.023,41.968"/>
	<path fill="#A6A8AC" d="M50.683,49.806v7.788c0,1.16-0.962,2.122-2.123,2.122H1.696v-3.995c0-1.111,0.909-2.022,2.07-2.022h36.651
		c1.064,0,1.923-0.862,1.923-1.921v-1.972c0-1.161,0.962-2.123,2.125-2.123h4.095C49.721,47.683,50.683,48.645,50.683,49.806"/>
	<polygon fill="#A6A8AC" points="5.736,53.682 10.792,51.426 25.328,51.426 30.381,53.682 	"/>
	<polygon fill="#A6A8AC" points="14.648,51.66 16.045,49.403 20.072,49.403 21.469,51.66 	"/>
	<path fill="#A6A8AC" d="M18.06,16.166c6.742,0,12.229,5.484,12.229,12.229c0,6.743-5.487,12.228-12.229,12.228
		S5.831,35.139,5.831,28.396C5.831,21.65,11.318,16.166,18.06,16.166 M18.06,12.032c-9.038,0-16.364,7.325-16.364,16.363
		c0,9.036,7.326,16.364,16.364,16.364c9.035,0,16.364-7.328,16.364-16.364C34.424,19.357,27.095,12.032,18.06,12.032"/>
	<path fill="#A6A8AC" d="M27.71,28.396c0,5.327-4.321,9.65-9.65,9.65s-9.652-4.323-9.652-9.65"/>
</g>
<g display="none">
	
		<text transform="matrix(1 0 0 1 44.2041 28.8311)" display="inline" fill="#A6A8AC" font-family="'GothamPro-Medium'" font-size="20.2836">POUR</text>
	<text transform="matrix(1 0 0 1 44.2041 49.9053)" display="inline"><tspan x="0" y="0" fill="#A6A8AC" font-family="'GothamPro-Medium'" font-size="20.2836">O</tspan><tspan x="13.104" y="0" fill="#A6A8AC" font-family="'GothamPro-Medium'" font-size="20.2836">VER</tspan></text>
	<path display="inline" fill="#A6A8AC" d="M17.738,37.555l4.318,14.331c0.412,1.382,0.16,2.834-0.696,3.989
		c-0.854,1.158-2.169,1.82-3.606,1.82h-20.27c-1.432,0-2.748-0.662-3.604-1.82c-0.854-1.155-1.108-2.607-0.693-3.989l4.316-14.331
		H17.738z M19.96,34.555H-4.717l-4.957,16.464c-1.452,4.82,2.144,9.682,7.158,9.682h20.27c5.02,0,8.616-4.861,7.163-9.682
		L19.96,34.555z"/>
	<path display="inline" fill="#A6A8AC" d="M19.7,6.058c0.042,0,0.16,0,0.252,0.128c0.095,0.129,0.055,0.242,0.044,0.28
		l-9.298,13.347l-6.154,0.04L-4.777,6.528c-0.011-0.037-0.048-0.15,0.042-0.28c0.094-0.129,0.212-0.129,0.254-0.129l24.178-0.062
		H19.7z M19.695,3.055h-0.003L-4.489,3.118c-2.249,0.005-3.835,2.213-3.128,4.351L2.385,22.863l10.478-0.054l9.973-15.406
		C23.54,5.259,21.943,3.053,19.695,3.055"/>
	<rect x="-5.799" y="27.782" display="inline" fill="#A6A8AC" width="27.033" height="7.052"/>
	<polygon display="inline" fill="#A6A8AC" points="18.494,28.599 -3.254,28.599 -4.707,24.166 19.947,24.166 	"/>
	<polygon display="inline" fill="#A6A8AC" points="19.133,1.868 -3.89,1.868 -4.707,0.3 19.947,0.3 	"/>
	<path display="inline" fill="#A6A8AC" d="M23.881,25.076H-8.642c-0.344,0-0.62-0.28-0.62-0.624v-1.583
		c0-0.346,0.276-0.625,0.62-0.625h32.523c0.344,0,0.625,0.28,0.625,0.625v1.583C24.507,24.796,24.226,25.076,23.881,25.076"/>
	<path display="inline" fill="#A6A8AC" d="M15.045,18.916l-1.308-1.745c0.906-0.678,1.886-1.198,2.926-1.553
		c1.027-0.349,1.718-0.397,2.388-0.449c0.465-0.034,0.958-0.067,1.642-0.231c1.318-0.323,2.947-0.718,3.341-1.72
		c0.292-0.738,0.042-1.957-0.869-2.645c-0.883-0.662-2.117-0.645-3.01,0.043l-1.329-1.725c1.665-1.288,3.984-1.307,5.645-0.059
		c1.603,1.203,2.285,3.432,1.592,5.184c-0.812,2.051-3.142,2.622-4.843,3.034c-0.846,0.205-1.445,0.252-2.007,0.293
		c-0.607,0.043-1.085,0.078-1.849,0.336C16.545,17.959,15.768,18.376,15.045,18.916"/>
	<path display="inline" fill="#A6A8AC" d="M26.085,51.959c-1.891,0-3.33-0.804-3.551-0.935l1.108-1.876
		c0.086,0.048,2.148,1.24,4.263,0.221c2.372-1.143,2.506-3.924,2.511-4.04c0.055-1.693-0.835-3.341-2.267-4.184
		c-1.873-1.114-4.463-0.691-6.144,1.009l-1.549-1.531c2.417-2.443,6.036-2.989,8.804-1.351c2.102,1.245,3.409,3.646,3.333,6.125
		c-0.005,0.174-0.184,4.219-3.748,5.934C27.882,51.794,26.939,51.959,26.085,51.959"/>
</g>
</svg>
